<?xml version="1.0" encoding="UTF-8"?>
<svg id="Layer_1" xmlns="http://www.w3.org/2000/svg" version="1.1" viewBox="0 0 1024 1024" width="250">
  <!-- Generator: Adobe Illustrator 29.8.3, SVG Export Plug-In . SVG Version: 2.1.1 Build 3)  -->
  <defs>
    <style>
      .st0 {
        fill: #fbfbfb;
      }

      .st0, .st1, .st2, .st3, .st4 {
        fill-rule: evenodd;
      }

      .st5 {
        fill: #ffc107;
      }

      .st6 {
        fill: #fff;
      }

      .st1 {
        fill: #a0a0a0;
      }

      .st2 {
        fill: #7c7c7c;
      }

      .st3 {
        fill: #050505;
      }

      .st4 {
        fill: #747474;
      }

      .st7 {
        fill: #b3b3b3;
      }
    </style>
  </defs>
  <path class="st6" d="M531.44,21.17c-15.22,0-30.22,4.01-43.42,11.59L144.14,230.45c-27.01,15.53-43.76,44.53-43.7,75.69l.74,396.66c.06,30.96,16.75,59.8,43.56,75.28l345.08,199.23c13.23,7.64,28.28,11.67,43.56,11.67s30.22-4.01,43.42-11.59l343.89-197.69c27.01-15.53,43.76-44.53,43.7-75.69l-.74-396.66c-.06-30.96-16.75-59.8-43.56-75.28L575,32.85c-13.23-7.64-28.28-11.67-43.56-11.67h0Z"/>
  <path d="M532.16,31.73c12.13,0,24.27,3.14,35.14,9.42l348.8,201.38c21.7,12.53,35.09,35.67,35.14,60.74l.75,400.94-836.96-1.3-.75-400.94c-.05-25.2,13.4-48.5,35.25-61.06L497.14,41.08c10.85-6.23,22.94-9.35,35.03-9.35M532.16,13.95c-15.38,0-30.55,4.05-43.89,11.72L140.68,225.49c-27.3,15.7-44.23,45.01-44.17,76.51l.75,400.94c.06,31.29,16.93,60.45,44.03,76.09l348.8,201.38c13.37,7.72,28.59,11.8,44.03,11.8s30.55-4.05,43.89-11.72l347.6-199.82c27.3-15.7,44.23-45.01,44.17-76.51l-.75-400.94c-.06-31.29-16.93-60.45-44.03-76.09L576.19,25.75c-13.37-7.72-28.59-11.8-44.03-11.8h0Z"/>
  <g>
    <path class="st6" d="M345.66,748.96l4.85,1.09c-2.32,9.37-7.57,14.06-15.74,14.06-5.37,0-9.58-2.17-12.64-6.5-3.06-4.34-4.59-9.67-4.59-16s1.6-11.78,4.79-15.75c3.19-3.96,7.47-5.94,12.84-5.94,7.96,0,13.07,4.55,15.33,13.65l-5.01,1c-1.82-6.76-5.28-10.14-10.36-10.14-3.75,0-6.66,1.57-8.72,4.71s-3.09,7.55-3.09,13.23c0,5.2,1.06,9.38,3.17,12.52,2.11,3.14,4.91,4.71,8.4,4.71,5.41,0,9-3.54,10.76-10.64h0Z"/>
    <path class="st6" d="M380.32,758.57v4.67h-25.07v-42.45h5.44v37.78h19.63Z"/>
    <path class="st6" d="M397.79,764.11c-5.45,0-9.7-2.12-12.75-6.36s-4.57-9.44-4.57-15.61,1.6-11.74,4.79-15.93,7.42-6.29,12.69-6.29,9.45,2.06,12.63,6.18c3.17,4.12,4.76,9.31,4.76,15.58s-1.54,11.26-4.62,15.73-7.39,6.71-12.92,6.71h-.01ZM397.91,759.79c3.71,0,6.61-1.69,8.71-5.07,2.09-3.38,3.14-7.74,3.14-13.07s-1.08-9.74-3.25-12.79-5.04-4.58-8.63-4.58-6.51,1.65-8.65,4.95c-2.14,3.3-3.2,7.62-3.2,12.95s1.08,9.45,3.23,12.71c2.16,3.27,5.04,4.9,8.65,4.9h0Z"/>
    <path class="st6" d="M445.67,720.79h4.42v27.73c0,5.56-1.36,9.55-4.09,11.97s-6.3,3.63-10.71,3.63c-4.91,0-8.55-1.25-10.92-3.73-2.36-2.49-3.55-6.44-3.55-11.86v-27.73h5.32v27.73c0,3.3.38,5.62,1.15,6.97s1.93,2.34,3.48,2.99c1.56.64,3.18.96,4.88.96,3.28,0,5.76-.86,7.46-2.58,1.7-1.72,2.55-4.5,2.55-8.34v-27.73h0Z"/>
    <path class="st6" d="M458.22,763.24v-42.45h14.24c5.99,0,10.66,2.04,13.99,6.13,3.34,4.08,5.01,9.08,5.01,14.99s-1.63,11.05-4.88,15.16c-3.26,4.12-7.38,6.17-12.38,6.17h-15.98,0ZM463.54,758.73h8.61c4.56,0,8.02-1.58,10.39-4.73,2.36-3.15,3.55-7.31,3.55-12.47,0-4.19-1.12-7.95-3.37-11.29-2.25-3.34-5.77-5.01-10.56-5.01h-8.61v33.49h-.01Z"/>
    <path class="st6" d="M539.11,758.57v4.67h-27.46v-42.45h26.87v4.66h-21.55v13.5h17.1v4.32h-17.1v15.3h22.14,0Z"/>
    <path class="st6" d="M575.95,763.24h-5.16l-21.96-37.01.06,2.8c.06,1.06.09,1.95.09,2.67v31.53h-4.29v-42.45h6.66l20.53,34.59-.06-2.95c-.04-1.16-.06-2.19-.06-3.08v-28.56h4.2v42.45h-.01Z"/>
    <path class="st6" d="M616.15,741.84v21.99h-3.25l-1.46-5.32c-2.61,3.73-6.5,5.6-11.67,5.6-5.6,0-9.96-2.11-13.07-6.32s-4.67-9.33-4.67-15.34c0-6.43,1.65-11.79,4.94-16.09,3.3-4.29,7.77-6.44,13.43-6.44,7.82,0,12.92,4.11,15.3,12.32l-5.04,1.21c-.73-3.15-2.08-5.44-4.07-6.87s-4.17-2.15-6.53-2.15c-4.19,0-7.28,1.69-9.27,5.07s-2.99,7.63-2.99,12.73c0,5.5,1.11,9.8,3.34,12.9,2.23,3.1,5.26,4.65,9.1,4.65,2.99,0,5.48-.99,7.48-2.98,2-1.98,3-4.72,3-8.21,0-.64-.02-1.41-.06-2.31h-10.51v-4.45h16Z"/>
    <path class="st6" d="M629.38,763.24h-5.32v-42.45h5.32v42.45Z"/>
    <path class="st6" d="M669.4,763.24h-5.16l-21.96-37.01.06,2.8c.06,1.06.09,1.95.09,2.67v31.53h-4.29v-42.45h6.66l20.53,34.59-.06-2.95c-.04-1.16-.06-2.19-.06-3.08v-28.56h4.2v42.45h-.01Z"/>
    <path class="st6" d="M705.61,758.57v4.67h-27.46v-42.45h26.87v4.66h-21.55v13.5h17.1v4.32h-17.1v15.3h22.14Z"/>
    <path class="st6" d="M738.66,758.57v4.67h-27.46v-42.45h26.87v4.66h-21.55v13.5h17.1v4.32h-17.1v15.3h22.14Z"/>
    <path class="st6" d="M774.78,763.24h-5.57l-7.83-18.38h-12.16v18.38h-4.98v-42.45h16.73c4.54,0,7.9,1.24,10.09,3.72s3.28,5.19,3.28,8.13c0,2.26-.61,4.43-1.83,6.5-1.22,2.07-3.24,3.56-6.06,4.45l8.33,19.65h0ZM749.22,740.54h11.1c2.92,0,5.11-.77,6.55-2.32,1.44-1.54,2.16-3.44,2.16-5.68s-.76-3.98-2.29-5.22c-1.52-1.24-3.45-1.87-5.77-1.87h-11.75v15.08h0Z"/>
  </g>
  <g>
    <path d="M214.74,468.71l-9.54,11.29c-4.16-3.18-8.22-5.15-13.37-5.15-9.21,0-15.34,7.67-15.34,25.1s6.03,24.88,15.56,24.88c5.7,0,9.97-2.63,14.58-6.25l8.99,11.4c-5.37,5.37-13.92,10.19-24.44,10.19-21.59,0-35.73-14.03-35.73-40.22s14.8-39.9,35.4-39.9c9.97,0,17.43,3.18,23.89,8.66h0Z"/>
    <path d="M242.14,522.41h29.26l-2.19,15.78h-47.35v-76.17h20.28v60.39h0Z"/>
    <path d="M340.9,500.05c0,24.77-12.82,40.11-34.96,40.11s-34.85-14.8-34.85-40.11,12.71-40.01,34.85-40.01,34.96,14.69,34.96,40.01ZM292.12,500.05c0,18.41,4.6,25.54,13.81,25.54s13.81-7.12,13.81-25.54-4.38-25.43-13.81-25.43-13.81,7.01-13.81,25.43h0Z"/>
    <path d="M409.95,512.66c0,15.45-10.08,27.51-30.69,27.51s-30.69-11.18-30.69-27.51v-50.64h20.28v49.98c0,8.99,2.96,13.37,10.41,13.37s10.3-4.38,10.3-13.37v-49.98h20.39v50.64Z"/>
    <path d="M483.38,499.83c0,30.47-18.19,38.36-38.47,38.36h-24.33v-76.17h22.8c20.61,0,40.01,6.47,40.01,37.81h-.01ZM440.85,476.49v47.24h5.26c10.41,0,16.33-5.15,16.33-23.89s-6.36-23.35-16.44-23.35h-5.15Z"/>
    <path d="M543.11,510.14h-5.59v28.06h-20.28v-76.17h26.42c21.26,0,32,7.45,32,23.67,0,9.86-4.49,15.67-14.03,20.72l18.96,31.79h-22.58l-14.91-28.06h.01ZM537.52,496.33h6.79c6.91,0,10.52-3.29,10.52-10.63,0-6.58-3.95-9.54-11.62-9.54h-5.7v20.17h.01Z"/>
    <path d="M631.46,476.38h-25.98v16.22h22.69v13.92h-22.69v17.32h27.73v14.36h-48.01v-76.17h48.33l-2.08,14.36h.01Z"/>
    <path d="M694.92,470.13l-9.1,10.74c-5.26-4.17-10.52-6.25-16.55-6.25s-9.21,2.3-9.21,6.47c0,4.38,2.85,5.92,14.25,9.65,15.02,4.71,22.58,11.18,22.58,24.99s-11.62,24.44-31.13,24.44c-13.92,0-23.46-5.04-29.7-11.07l9.97-11.07c5.59,4.6,11.62,7.45,18.96,7.45s10.85-3.29,10.85-8.22-2.63-7.23-13.15-10.41c-17.76-5.59-23.46-12.93-23.46-24.11,0-13.92,12.17-22.69,28.5-22.69,11.84,0,20.39,3.62,27.18,10.08h.01Z"/>
    <path d="M765.28,512.66c0,15.45-10.08,27.51-30.69,27.51s-30.69-11.18-30.69-27.51v-50.64h20.28v49.98c0,8.99,2.96,13.37,10.41,13.37s10.3-4.38,10.3-13.37v-49.98h20.39v50.64Z"/>
    <path d="M853.84,538.2h-19.95l-.99-28.39c-.33-10.19-.55-20.61.33-31.13l-10.41,51.62h-19.18l-11.07-51.62c.99,11.95,1.21,20.72.88,31.13l-.88,28.39h-19.95l5.59-76.17h25.21l10.19,50.53,9.21-50.53h25.32l5.7,76.17h0Z"/>
    <path d="M908.64,476.38h-25.98v16.22h22.69v13.92h-22.69v17.32h27.73v14.36h-48.01v-76.17h48.33l-2.08,14.36h.01Z"/>
    <path d="M309.22,572.39l-9.54,11.29c-4.16-3.18-8.22-5.15-13.37-5.15-9.21,0-15.34,7.67-15.34,25.1s6.03,24.88,15.56,24.88c5.7,0,9.97-2.63,14.58-6.25l8.99,11.4c-5.37,5.37-13.92,10.19-24.44,10.19-21.59,0-35.73-14.03-35.73-40.22s14.8-39.9,35.4-39.9c9.97,0,17.43,3.18,23.89,8.66h0Z"/>
    <path d="M356.79,610.2h-20.17v31.68h-20.28v-76.17h20.28v28.83h20.17v-28.83h20.28v76.17h-20.28v-31.68Z"/>
    <path d="M425.4,626.31h-20.17l-3.4,15.56h-21.04l22.58-76.17h24.33l22.58,76.17h-21.48l-3.4-15.56h0ZM422.22,611.85l-6.9-31.68-6.91,31.68h13.81Z"/>
    <path d="M474.39,626.09h29.26l-2.19,15.78h-47.35v-76.17h20.28v60.39h0Z"/>
    <path d="M531.06,626.09h29.26l-2.19,15.78h-47.35v-76.17h20.28v60.39h0Z"/>
    <path d="M613.7,580.06h-25.98v16.22h22.69v13.92h-22.69v17.32h27.73v14.36h-48.01v-76.17h48.33l-2.08,14.36h.01Z"/>
    <path d="M684.94,641.88h-25.54l-19.29-57.32c.99,7.23,2.63,17.43,2.63,31.57v25.76h-17.97v-76.17h24.99l19.95,57.54c-1.21-7.56-2.74-16.99-2.74-29.92v-27.62h17.97v76.17h0Z"/>
    <path d="M757.39,573.38l-9.97,10.41c-5.15-3.73-9.21-5.7-15.12-5.7-10.63,0-17.54,7.89-17.54,25.76,0,19.29,4.6,25.43,14.25,25.43,3.4,0,6.25-.66,8.99-2.08v-15.67h-8.66l-1.97-13.92h30.25v37.92c-8,5.26-18.52,8.33-28.06,8.33-24.44,0-35.73-14.14-35.73-40.12s16.22-40,37.38-40c11.4,0,19.95,4.17,26.2,9.65h-.02Z"/>
    <path d="M814.17,580.06h-25.98v16.22h22.69v13.92h-22.69v17.32h27.73v14.36h-48.01v-76.17h48.33l-2.08,14.36h.01Z"/>
  </g>
  <g id="svgg">
    <g id="path0">
      <path class="st3" d="M536.46,114.4c-.51.32-1.27.76-1.69.99-.42.23-1.53.85-2.45,1.37-5.87,3.3-8.41,4.69-8.54,4.69-.08,0-.37.19-.64.43s-.97.7-1.56,1.03c-3.84,2.14-4.77,2.67-4.91,2.82-.08.09-.64.43-1.23.75-2.15,1.15-3.88,2.16-6.24,3.61-1.32.82-2.46,1.49-2.54,1.49-.18,0-2.69,1.63-2.88,1.87-.08.1-.44.28-.79.39s-.91.44-1.24.73c-.74.65-1.41,1.08-3.1,1.96-.72.37-1.3.77-1.3.88s-.55.45-1.23.76c-.67.3-1.23.67-1.23.81s-.15.26-.33.26-.77.33-1.3.73c-.54.4-1.46.99-2.05,1.31-1.16.63-4.92,3.08-17.48,11.41-4.47,2.97-8.31,5.57-8.53,5.78-.22.21-.51.39-.63.39s-.49.24-.82.54c-.33.3-1.35,1.02-2.28,1.6s-2.03,1.31-2.45,1.62-2.35,1.66-4.29,2.99-3.69,2.57-3.9,2.74-.5.32-.65.32-.47.22-.69.49-1.1.95-1.95,1.52-2.1,1.45-2.77,1.96c-.67.51-1.78,1.31-2.45,1.78s-2.67,1.93-4.45,3.25c-1.77,1.32-3.55,2.63-3.95,2.91s-1.25.93-1.89,1.44c-.64.51-2.43,1.89-3.98,3.07-1.55,1.18-3.12,2.4-3.48,2.71-.36.31-1.06.86-1.54,1.23s-1.31,1.02-1.84,1.46-2.5,2.03-4.37,3.54c-1.88,1.51-4.15,3.38-5.06,4.15s-3.03,2.55-4.72,3.93c-1.69,1.39-3.83,3.2-4.75,4.03-.93.83-1.83,1.61-1.99,1.73-.17.12-1.14.92-2.15,1.78-1.01.86-2.13,1.75-2.49,1.99s-1.28.99-2.04,1.67c-.77.67-2.17,1.77-3.11,2.44-.94.67-1.72,1.33-1.72,1.46s-.12.24-.27.24-1.1.55-2.11,1.23c-1.01.67-1.99,1.23-2.18,1.23s-.34.13-.34.28-.41.37-.92.48c-.5.11-1,.33-1.09.48-.1.16-.42.28-.71.28-2.63,0-3.96,5.01-1.88,7.06.09.08.52.71.97,1.38s1.03,1.5,1.3,1.84c.99,1.25,8.08,11.38,8.64,12.35.32.55.69,1,.82,1s.24.12.24.27c0,.35,2.51,4.14,2.83,4.28.13.06.24.25.24.43s.53,1.17,1.17,2.2c.65,1.03,1.27,2.08,1.38,2.33.12.25.46.87.77,1.38s1.02,1.75,1.57,2.76c.56,1.01,1.12,1.98,1.25,2.15.13.17.85,1.48,1.61,2.91.75,1.43,1.83,3.44,2.38,4.45.55,1.01,1.86,3.5,2.91,5.52,1.05,2.02,2.34,4.44,2.86,5.37.53.93,1.27,2.31,1.65,3.07s.76,1.45.85,1.53c.08.08.43.71.76,1.38.34.67.68,1.3.77,1.38.18.18.84,1.38,2.47,4.47,1.39,2.64,1.93,3.61,2.14,3.81.09.08.63,1.12,1.21,2.3s1.13,2.22,1.23,2.3c.09.08.37.57.62,1.07.25.51,1.06,2.02,1.82,3.37.75,1.35,1.74,3.14,2.18,3.99.45.84,1.83,3.33,3.07,5.52,1.24,2.19,2.4,4.3,2.58,4.67.18.38.43.69.56.69s.23.17.23.39c0,.39.14.67,1.67,3.45.47.84,1.42,2.64,2.12,3.99.7,1.35,1.34,2.52,1.42,2.61.08.08.43.71.76,1.38s.68,1.3.77,1.38c.09.08.46.77.83,1.53s1.25,2.42,1.95,3.68c.7,1.27,1.68,3.06,2.19,3.99s1.27,2.31,1.69,3.07,1.13,2.07,1.57,2.91.89,1.6,1,1.69c.11.08.3.5.43.92s.56,1.25.96,1.84.72,1.23.72,1.43.11.41.24.47.73,1.07,1.32,2.25c.6,1.18,1.55,2.98,2.12,3.99.57,1.01,1.38,2.53,1.81,3.37s.86,1.6.94,1.69c.16.16.45.67,2.47,4.47,1.43,2.7,1.95,3.61,2.14,3.81.08.08.41.64.73,1.23s.99,1.83,1.5,2.76c.51.93,1.37,2.51,1.92,3.53.55,1.01,1.49,2.72,2.1,3.79s1.11,1.98,1.11,2.03.87,1.59,1.92,3.42c1.06,1.83,2.18,3.88,2.5,4.55.32.67,1.01,1.91,1.54,2.76s1.35,2.34,1.83,3.31c.48.97.99,1.76,1.14,1.76s.27.15.27.34c0,.39.95,2.5,1.23,2.73.18.15,1.11,1.89,3.43,6.44.64,1.27,1.17,2.74,1.17,3.28,0,4.23,3.61,3.95,12.62-1,.45-.25.97-.45,1.17-.45s.9-.27,1.58-.59c.67-.33,1.66-.69,2.2-.81s1.22-.33,1.52-.48c.3-.15.79-.39,1.09-.54s.99-.36,1.53-.48c.54-.12,1.06-.34,1.16-.5s.44-.28.77-.28.6-.1.6-.23.86-.49,1.92-.81c1.05-.32,2.05-.68,2.22-.79.17-.11,1-.46,1.84-.76.84-.3,1.66-.67,1.83-.82.16-.15.55-.27.87-.27s1.02-.19,1.55-.43c.53-.24,1.73-.66,2.65-.94.93-.28,1.96-.63,2.3-.78.34-.15,1.3-.49,2.15-.75.84-.27,1.81-.6,2.15-.75s1.23-.43,1.99-.64c.76-.2,1.79-.55,2.3-.77s1.47-.57,2.15-.77c.67-.2,1.64-.54,2.15-.75s1.68-.63,2.61-.93,1.83-.65,1.99-.77c.17-.12.75-.3,1.3-.41.55-.1,1.57-.47,2.28-.81s1.53-.62,1.84-.62c.54,0,2.69-.72,3.64-1.21.26-.14,1.05-.34,1.76-.46s1.37-.34,1.46-.5c.09-.15.57-.28,1.06-.28s.96-.12,1.05-.27.69-.36,1.32-.48c1.32-.24,3.07-.75,3.79-1.1.27-.13,1.13-.34,1.92-.46s1.5-.34,1.6-.49c.09-.15.57-.27,1.05-.27s.96-.12,1.05-.27c.09-.15.85-.36,1.69-.47.84-.11,1.61-.34,1.71-.5.1-.16.52-.3.94-.3s.99-.13,1.29-.29c.29-.16,1.29-.5,2.22-.77,3.37-.97,5.07-1.49,5.67-1.73.34-.13,1.37-.47,2.3-.74s1.93-.63,2.22-.79.74-.29.99-.29,1.46-.33,2.69-.74,3.13-.98,4.22-1.28c1.1-.29,2.13-.63,2.3-.76.17-.12.98-.32,1.8-.44s1.86-.36,2.3-.54c.44-.18,1.08-.43,1.42-.57.56-.23,2.63-.66,5.29-1.11.55-.09,1.08-.29,1.17-.44.09-.15.52-.27.94-.27.91,0,4.63-.87,5.41-1.27.3-.15,1.17-.36,1.93-.47.76-.1,1.46-.31,1.55-.45.09-.15.5-.26.92-.26s.99-.13,1.29-.29c.81-.43,3.64-1.25,4.33-1.25.34,0,.69-.13.79-.28.09-.15.76-.38,1.48-.49.72-.12,1.44-.32,1.61-.44.17-.13,1.27-.48,2.45-.78s2.28-.65,2.45-.76c.17-.11,1.2-.44,2.3-.73s2.27-.64,2.61-.78c.34-.14,1.72-.5,3.07-.8,1.35-.3,2.59-.63,2.76-.73s1.07-.34,1.99-.54c4.17-.9,9.32-2.28,9.65-2.58.16-.15.52-.27.81-.27.52,0,3.26-.77,4.42-1.23.7-.28,2.96-.89,4.22-1.13.46-.09.84-.28.84-.43s.35-.27.78-.27,1.27-.21,1.88-.46,1.36-.46,1.68-.46.58-.12.58-.26.7-.35,1.56-.45c1.51-.18,3.32-.66,4.28-1.13.26-.13,1.22-.33,2.14-.46.91-.13,1.88-.34,2.14-.47s1.71-.48,3.23-.77c1.52-.29,2.89-.65,3.05-.79.16-.15.52-.27.8-.27.72,0,1.5-.96,1.87-2.31.66-2.39-.75-4.75-2.85-4.75-.46,0-.57-.24-.57-1.32,0-1.35-.85-3.45-2.38-5.84-.94-1.48-5.9-11.26-5.9-11.64,0-.14-.43-1.18-.95-2.31s-1.07-2.36-1.23-2.74c-.46-1.15-.82-1.99-1.64-3.84-.43-.97-.78-1.85-.78-1.94s-.35-.92-.77-1.84c-.42-.92-.77-1.76-.77-1.85,0-.23-.85-2.19-1.41-3.23-.24-.45-.43-.96-.43-1.14s-.36-1.13-.8-2.1-.94-2.12-1.11-2.54-.48-1.18-.69-1.69-.53-1.27-.7-1.69-.68-1.54-1.12-2.48c-.44-.95-.8-1.82-.8-1.95s-.22-.73-.5-1.35c-.27-.62-.69-1.6-.93-2.19s-.57-1.31-.73-1.61c-.16-.29-.29-.67-.29-.84s-.33-1.03-.73-1.92c-.4-.89-.91-2.1-1.12-2.69s-.56-1.49-.76-1.99c-.39-.96-1.28-3.23-1.68-4.29-.21-.54-.82-2.12-1.54-3.99-.13-.34-.47-1.3-.76-2.15-.29-.84-.69-1.95-.91-2.45-.21-.51-.57-1.4-.79-1.99s-.5-1.21-.62-1.38-.31-.7-.42-1.18c-.12-.48-.47-1.45-.78-2.15-.31-.7-.82-2.03-1.13-2.96s-.65-1.76-.76-1.84-.3-.64-.42-1.23c-.13-.59-.47-1.63-.77-2.3-.3-.67-.98-2.47-1.53-3.99-.55-1.52-1.1-3.04-1.24-3.37-.13-.34-.41-1.1-.63-1.69-.21-.59-.55-1.49-.76-1.99-.21-.51-.63-1.78-.95-2.84-.32-1.05-.68-1.92-.81-1.92s-.23-.27-.23-.6c0-.65-.77-3.24-1.2-4.01-.14-.26-.36-.94-.49-1.52s-.34-1.27-.46-1.52c-.56-1.14-.9-2.08-1.09-3.07-.12-.58-.31-1.28-.44-1.53-.41-.83-.82-1.96-1.39-3.84-.31-1.01-.66-1.98-.77-2.15-.12-.17-.32-.79-.44-1.37-.13-.59-.33-1.28-.46-1.53-.57-1.15-.9-2.08-1.09-3.08-.11-.59-.31-1.21-.43-1.38s-.46-1.13-.76-2.15-.65-2.12-.8-2.45c-.15-.34-.83-2.34-1.53-4.45s-1.38-4.11-1.52-4.45-.5-1.51-.8-2.61-.65-2.13-.77-2.3-.32-.83-.44-1.46-.34-1.23-.49-1.32c-.15-.09-.27-.5-.27-.9s-.14-.82-.31-.92c-.17-.1-.31-.45-.31-.77,0-.56-.68-2.87-1.21-4.13-.14-.34-.5-1.58-.79-2.76s-.64-2.29-.76-2.45c-.13-.17-.32-.89-.44-1.61s-.34-1.38-.49-1.48c-.15-.1-.28-.5-.28-.9s-.12-.8-.27-.9c-.15-.09-.36-.73-.47-1.41-.11-.69-.33-1.48-.49-1.77-.36-.65-2.77-8.4-2.77-8.91,0-.2-.12-.6-.27-.9-.15-.29-.5-1.36-.78-2.37s-.63-2.12-.77-2.45c-.14-.34-.5-1.58-.79-2.76s-.65-2.28-.8-2.44c-.15-.16-.27-.52-.27-.81,0-.52-.77-3.26-1.23-4.42-.34-.84-.94-3.16-1.13-4.37-.09-.55-.28-1.08-.43-1.17-.15-.09-.27-.42-.27-.73,0-.62-.84-3.58-1.23-4.34-.14-.27-.35-1.14-.47-1.92s-.34-1.5-.49-1.6c-.15-.09-.27-.95-.28-1.91,0-2.43-4.23-6.5-6.74-6.5-.32,0-.66-.12-.75-.27-.09-.15-.66-.36-1.27-.48-.6-.11-1.7-.54-2.44-.96-.74-.41-1.63-.75-1.97-.75s-.63-.1-.63-.23c0-.3-1.42-.93-2.69-1.18-.55-.11-.99-.32-.99-.47s-.34-.27-.75-.27-.83-.13-.92-.28-.86-.37-1.71-.49c-.84-.12-1.53-.34-1.53-.49s-.34-.28-.75-.28-.83-.13-.93-.3-.87-.39-1.71-.5-1.52-.32-1.52-.47-.26-.27-.58-.27-.97-.21-1.46-.46c-.48-.25-1.19-.46-1.57-.46s-.69-.14-.69-.31-.27-.31-.6-.31-.67-.13-.77-.28c-.1-.15-.76-.38-1.48-.49-.72-.12-1.44-.31-1.61-.43-.5-.36-2.92-1.02-6.9-1.91-.76-.17-3.45-.44-5.98-.59-2.53-.16-4.88-.42-5.21-.58-.34-.16-1.72-.35-3.07-.44-1.35-.08-3.14-.29-3.99-.46-2.77-.56-9.06-.39-10.12.27M551.49,119c1.18.16,3.67.5,5.52.76,1.86.26,4.06.55,4.91.64,1.59.18,5.07.94,6.14,1.35.34.13,1.51.52,2.61.87,1.1.35,4.89,1.61,8.43,2.8s7.55,2.52,8.9,2.96c1.35.44,3.77,1.43,5.37,2.21,1.6.78,3.94,1.84,5.19,2.35,2.79,1.14,3.25,1.82,1.02,1.52-1.74-.23-2.45.05-5.6,2.25-2.5,1.75-7.46,5.36-7.67,5.59-.08.09-1.67,1.33-3.53,2.75-4.77,3.65-6.6,5.21-10.37,8.89-1.82,1.78-3.42,3.27-3.56,3.32-.29.1-.68-.63-6.48-12.05-2.4-4.72-4.74-9.28-5.21-10.12-.47-.84-1.26-2.29-1.76-3.22-1.25-2.31-3.25-5.66-5.69-9.56-2.62-4.16-2.75-3.92,1.78-3.32M542.66,120.45c.11.3.73,1.4,1.37,2.46s1.17,1.98,1.17,2.05.6,1.13,1.33,2.37c.73,1.24,1.92,3.35,2.65,4.7.73,1.35,1.7,3.14,2.16,3.99.46.84,3.26,6.3,6.21,12.12,7.1,13.98,6.91,13.64,8.01,14.9,2.11,2.43,3.8,1.9,8.47-2.61,4.6-4.44,5.5-5.27,7.05-6.47.76-.58,1.45-1.14,1.53-1.23s1.67-1.33,3.53-2.75c1.86-1.42,3.44-2.67,3.53-2.77.23-.29,10.96-7.96,11.13-7.96.23,0,.76,1.49,1.42,3.99.33,1.27.97,3.54,1.41,5.06s.92,3.17,1.06,3.68c.41,1.5,1.18,4.18,1.71,5.98.27.93.61,2.1.75,2.61s.63,2.09,1.08,3.53c.84,2.65,1.53,4.94,1.99,6.59.14.51.53,1.75.87,2.76.71,2.13,1.63,5.07,3.42,10.89.7,2.28,1.39,4.49,1.54,4.91.15.42.5,1.59.79,2.61s.83,2.81,1.21,3.99c2.11,6.66,4.04,12.62,4.92,15.18.55,1.6,1.09,3.26,1.2,3.68s.32,1.04.47,1.38c.15.34.84,2.34,1.54,4.45.7,2.11,1.39,4.11,1.53,4.45s.49,1.37.77,2.3c.28.93.63,1.96.77,2.3s1.58,4.55,3.18,9.36c2.66,7.97,4.27,12.59,6.16,17.64.38,1.01.76,2.05.86,2.3,1.61,4.34,8.93,23.63,9.14,24.08.15.34,1.04,2.62,1.98,5.06.93,2.45,1.85,4.79,2.04,5.21.4.9.42.93,2.26,5.48.78,1.92,1.82,4.37,2.32,5.45.49,1.08.9,2.04.9,2.13s.28.81.63,1.6.75,1.72.89,2.05c.14.34.48,1.12.75,1.73.27.62.49,1.2.49,1.29s.35.93.77,1.85c.42.92.77,1.75.77,1.84s.35.96.78,1.94c.43.98.9,2.05,1.03,2.39.14.34.4.96.58,1.38s.6,1.39.93,2.15c.33.76,1.39,3.24,2.36,5.52,3.57,8.41,7.72,16.29,10.31,19.6.87,1.1.71,1.42-.88,1.81-.8.2-3.18.78-5.29,1.29s-4.52,1.13-5.37,1.37c-2.8.79-6.71,1.94-10.43,3.07-4.98,1.51-9.04,2.65-11.5,3.22-2.18.51-9.69,2.48-10.43,2.74-.42.15-1.59.5-2.61.79-1.01.28-2.19.63-2.61.76-.42.14-1.59.49-2.61.79s-2.12.64-2.45.77c-.34.13-1.65.53-2.91.9-1.27.37-3.41,1.01-4.75,1.43-2.89.89-7.47,2.13-10.28,2.78-3.76.87-4.15.96-7.21,1.78-1.69.45-3.62.95-4.29,1.11-.67.16-1.57.41-1.99.56s-1.53.48-2.45.74c-3.14.88-7.19,2.11-10.43,3.15-1.77.57-3.98,1.27-4.91,1.54-.93.27-1.93.62-2.22.76-.29.15-.69.27-.89.27s-1.89.47-3.76,1.05-4.23,1.28-5.24,1.57c-3.13.89-4.55,1.29-5.83,1.63-4.95,1.36-14.67,4.49-19.63,6.33-1.52.56-3.8,1.39-5.06,1.84-1.27.45-2.58.93-2.91,1.08-.34.14-1.92.7-3.53,1.23-1.6.54-3.85,1.31-4.98,1.71-1.14.4-3.07,1.09-4.29,1.53s-2.5.91-2.84,1.06-1.72.7-3.07,1.21c-2.68,1.02-2.85,1.1-5.45,2.27-.97.44-1.95.8-2.16.8s-.52.12-.68.26-.98.5-1.83.8c-.84.3-1.97.73-2.5.97s-1.06.43-1.17.43c-.44,0-5.01,2.31-6.84,3.46-1.95,1.23-2.83,1.31-2.83.29,0-.52-.98-3.2-1.98-5.43-.23-.51-.85-1.89-1.38-3.07-1.13-2.5-5.33-10.91-7.66-15.34-3-5.69-8.49-15.98-9.82-18.4-1.57-2.85-5.3-9.8-6.84-12.73-.84-1.6-1.91-3.6-2.37-4.45-.46-.84-1.71-3.19-2.77-5.21s-2.27-4.3-2.69-5.06-1.29-2.38-1.95-3.6c-.65-1.22-1.76-3.29-2.46-4.6-1.27-2.36-2.63-4.95-5.56-10.51-.84-1.6-2.07-3.86-2.72-5.01-.65-1.15-1.19-2.15-1.19-2.22s-1.98-3.68-4.4-8.02c-2.42-4.35-4.99-9.01-5.71-10.36-.72-1.35-1.7-3.14-2.16-3.99-2.08-3.79-2.6-4.74-3.76-6.9-.68-1.27-1.33-2.44-1.45-2.61-.26-.37-1.47-2.59-3.67-6.75-.89-1.69-1.72-3.21-1.85-3.37-.12-.17-.98-1.76-1.91-3.53s-1.96-3.7-2.29-4.29c-.33-.59-1.33-2.45-2.23-4.14-.9-1.69-2.21-4.1-2.93-5.37-.71-1.27-1.57-2.78-1.9-3.37-2.91-5.17-7.66-12.45-12.91-19.78-4.11-5.75-4.21-5.97-2.9-6.57,2.08-.95,7.05-4.55,13.6-9.84,1.37-1.11,7.54-6.27,12.23-10.23,1.92-1.62,2.18-1.83,5.85-4.8,1.77-1.43,3.29-2.68,3.37-2.76.19-.19,3.72-3.01,6.59-5.26,3.48-2.73,9.57-7.31,13.19-9.92,1.86-1.34,3.44-2.52,3.53-2.61s1.26-.96,2.61-1.91c1.35-.95,2.6-1.86,2.77-2.01.17-.15,3.14-2.22,6.59-4.6,3.45-2.38,6.41-4.44,6.58-4.58,1.1-.9,25.57-16.99,30.67-20.18,1.86-1.16,3.8-2.42,4.32-2.81.52-.39,1.05-.71,1.17-.71s.66-.33,1.2-.72c.9-.66,17.84-10.92,20.55-12.44.64-.36,2.92-1.67,5.06-2.9s4.72-2.7,5.73-3.26c9.4-5.22,8.92-5.01,9.27-4.07M542.29,171.19c-2.14.72-5.28,1.88-6.18,2.28-.53.24-1.05.43-1.14.43s-1.08.41-2.19.92-2.09.92-2.19.92-.61.2-1.14.44-1.59.71-2.35,1.05c-3.71,1.63-6.17,2.74-9.97,4.51-1.18.55-2.84,1.3-3.68,1.68-3.42,1.53-16.55,8.18-20.7,10.5-.76.42-2.28,1.25-3.37,1.84-1.1.59-3.37,1.87-5.06,2.85-1.69.98-3.69,2.12-4.45,2.54s-1.52.87-1.69.99c-.17.13-.93.58-1.69,1s-2.97,1.75-4.91,2.95-3.73,2.27-3.99,2.38c-.25.11-.87.5-1.38.87s-1.06.73-1.23.8c-1.73.71-24.32,16.26-25.31,17.43-.08.1-.98.79-1.99,1.54-1.01.75-1.91,1.44-1.99,1.54-.08.1-.78.66-1.53,1.24-.76.58-1.45,1.13-1.53,1.22-.13.14-1.58,1.37-4.72,4.02-1.17.99-1.03.86-5.25,4.73-5.23,4.8-5.28,4.85-4.11,5.22.56.18,2.95-1.14,3.65-2.01.18-.23,5.83-4.97,7.53-6.33.67-.53,2.35-1.87,3.73-2.98,3.92-3.13,11.84-8.99,15.8-11.7,7.42-5.07,20.87-13.65,21.39-13.65.17,0,.31-.14.31-.31s.14-.31.31-.31,1.52-.74,2.99-1.65c1.47-.91,3.23-1.96,3.91-2.34,11.27-6.33,15.83-8.78,23.31-12.54,8.37-4.21,10.47-5.23,16.1-7.79,1.27-.58,3.13-1.43,4.14-1.89s2.46-1.09,3.22-1.39c.76-.3,2.46-1.05,3.78-1.65,1.32-.61,2.53-1.11,2.69-1.11s.53-.13.82-.3c.82-.45,3.81-1.74,4.67-2.01.86-.27,3.86-1.55,4.67-2.01.29-.16.88-.3,1.3-.3s.77-.14.77-.31.19-.31.42-.31c.71,0,2.04-1.24,2.04-1.91,0-1.3-1.76-1.81-3.83-1.11M507.47,208.46c-1.81.6-4.38,1.77-12.73,5.79-2.02.97-4.99,2.38-6.59,3.13-8.33,3.9-16.01,7.68-19.32,9.51-5.39,2.97-9.85,5.7-13.27,8.12-1.14.81-2.2,1.47-2.35,1.47s-.33.1-.38.23c-.06.13-.72.71-1.48,1.3-2.68,2.07-4.02,3.48-3.92,4.13.1.72,1.16,1.07,1.16.38s10.87-8.19,11.92-8.19c.19,0,.35-.14.35-.31s.12-.31.26-.31,1.49-.71,2.99-1.57c2.59-1.49,14.14-7.28,16.4-8.22.97-.41,5.35-2.42,9.03-4.16,7.49-3.53,17.99-8.88,18.84-9.6,1.5-1.27.95-2.33-.9-1.71M514.38,238.82c-5.72.38-14.21,3.55-18.37,6.85-6.88,5.46-12.89,12.69-15.95,19.17-2.75,5.85-3.1,7.65-3.1,16.1,0,6.47.22,8.97,1.07,12.27.76,2.95,1.36,4.94,2.03,6.75l.74,1.99-.69.53c-.38.29-.79.54-.92.54-.89.03-8.54,5.52-9.9,7.11-11.03,12.87-3.14,39.37,10.08,33.85.61-.25,1.59-.46,2.19-.46s1.33-.13,1.62-.28,1.91-.93,3.6-1.73c1.69-.8,4.62-2.19,6.52-3.1,1.9-.9,3.52-1.64,3.61-1.64s3.51-1.64,7.59-3.66c4.08-2.01,8.67-4.15,10.19-4.76,1.52-.61,3-1.24,3.29-1.41.29-.16.66-.3.82-.3.28,0,1.68-.62,7.08-3.14,1.43-.67,3.3-1.48,4.14-1.81s1.81-.72,2.15-.88,2.55-.92,4.91-1.71c4.91-1.63,11.53-3.97,12.88-4.57.92-.4,4.81-1.87,8.89-3.35,1.18-.43,4.98-1.7,8.44-2.83,3.46-1.13,6.56-2.16,6.9-2.3.34-.14,2.48-.87,4.75-1.63,2.28-.76,7.18-2.44,10.89-3.73s7.3-2.52,7.98-2.74c.67-.22,2.26-.82,3.53-1.33,1.27-.52,3.47-1.3,4.91-1.75,1.43-.45,3.21-1.14,3.95-1.55.74-.41,1.58-.74,1.86-.74s1.9-.83,3.59-1.84,3.91-2.11,4.95-2.44c5.32-1.7,6.29-3.61,5.63-11.06-.99-11.04-5.1-16.87-14.04-19.87-8.03-2.7-13.99-2.9-19.84-.68-.98.37-1.82.63-1.87.57s-.32-.73-.61-1.49c-2.1-5.48-6.29-9.57-11.38-11.12-11.48-3.5-22.16-1.14-30.96,6.84-2.89,2.63-2.44,2.62-5.01.06-8.45-8.44-19.3-13.35-28.14-12.76M631.4,321.58c-2.07.42-6.33,1.52-7.67,1.99-.42.15-1.59.5-2.61.79-1.94.55-15.21,4.92-16.26,5.36-.34.14-1.3.49-2.15.78-3.45,1.17-5.86,2.05-6.36,2.32-.29.16-.69.29-.87.29s-.78.19-1.31.43c-.53.24-2,.8-3.27,1.25s-2.78,1.01-3.37,1.24c-.59.23-3.7,1.41-6.9,2.61-5.69,2.14-12.23,4.75-17.02,6.8-.42.18-1.04.44-1.38.58-.34.14-1.41.6-2.39,1.03-.97.43-1.83.78-1.9.78-.11,0-1.31.53-5.38,2.38-.59.27-1.76.78-2.61,1.14-6.31,2.7-24.92,12.07-27.19,13.69-.45.32-.9.58-.99.58s-1.45.76-3.02,1.69-3.06,1.81-3.31,1.95c-.83.46-.76,1.57.09,1.57.41,0,5.63-2.45,11.6-5.45,10.01-5.02,14.53-7.22,18.52-8.99.84-.37,2.4-1.07,3.46-1.56,1.06-.48,2-.88,2.1-.88s1.07-.41,2.16-.92c1.09-.51,2.16-.92,2.37-.92s.51-.12.67-.26,2.57-1.19,5.35-2.33c2.78-1.14,5.34-2.19,5.67-2.33s2.06-.84,3.83-1.54,3.64-1.45,4.14-1.66c.51-.21,1.96-.76,3.22-1.23,1.27-.46,2.58-.95,2.91-1.08,1.17-.44,3.38-1.3,3.99-1.55.34-.14,1.3-.48,2.15-.76.84-.28,1.81-.63,2.15-.77.72-.29,4.26-1.56,6.44-2.3.84-.29,1.81-.63,2.15-.77.34-.14,1.3-.48,2.15-.77.84-.28,1.81-.63,2.15-.78,1.02-.44,21.48-7.2,25.92-8.57,2.28-.7,4.56-1.46,5.07-1.69s1.3-.56,1.76-.74c2.76-1.05-.42-2.16-4.07-1.42"/>
    </g>
    <g id="path1">
      <path class="st0" d="M548.96,120.31c.46.61.84,1.24.84,1.41s.11.35.23.4c.24.1,2.83,4.16,2.83,4.42,0,.08.37.73.82,1.44,1.6,2.52,2.97,5.06,7.07,13.11,3.87,7.58,7.62,14.85,7.97,15.44.08.14,1.76-1.31,3.72-3.23,3.54-3.46,4.78-4.54,8.63-7.5,1.1-.84,3.68-2.83,5.73-4.42,4.98-3.85,9.19-6.75,10.35-7.12.52-.17,1.15-.37,1.4-.45.41-.13.41-.16,0-.3-.25-.09-2.15-.97-4.21-1.96s-3.84-1.8-3.94-1.8-.63-.2-1.16-.44c-.53-.24-2.83-1.01-5.11-1.71-3.82-1.18-5.64-1.79-11.5-3.89-4.15-1.49-8.32-2.51-12.27-2.99-2.19-.27-4.68-.63-5.52-.81-.84-.17-2.71-.4-4.14-.5l-2.61-.19.84,1.1M537.69,122.64c-3.95,2.22-4.28,2.41-10.58,6.01-4.16,2.38-6.26,3.62-9.66,5.69-1.01.62-2.53,1.5-3.37,1.97-7.91,4.37-42,26.53-55.83,36.28-2.7,1.9-5.17,3.63-5.48,3.84-.64.42-6.92,4.97-7.4,5.36-.17.14-1.96,1.45-3.99,2.92-3.58,2.6-9.88,7.37-12.3,9.31-.66.53-3.06,2.45-5.34,4.27s-5.39,4.36-6.92,5.64-3.35,2.78-4.05,3.35c-.7.56-1.59,1.3-1.98,1.64s-1.33,1.12-2.08,1.74c-.76.61-1.45,1.19-1.53,1.29-.25.28-7.35,6.15-9.66,8-2.49,1.99-6.42,4.72-8.51,5.93-1.93,1.11-2.03.8,2.58,7.25,5.76,8.06,9.56,13.93,13.06,20.21,2.98,5.34,3.88,7,5.29,9.66.89,1.69,1.93,3.62,2.3,4.29.38.67,1.31,2.4,2.07,3.83s1.72,3.23,2.15,3.99c.42.76,1.36,2.48,2.08,3.82.72,1.35,1.56,2.89,1.87,3.44s1.07,1.93,1.69,3.08c.62,1.14,1.71,3.11,2.42,4.38s1.95,3.54,2.76,5.06,2.7,4.95,4.19,7.63,2.71,4.92,2.71,4.99.32.64.71,1.27c.39.63,1.38,2.39,2.2,3.9,1.5,2.8,2.49,4.64,4.29,7.98.55,1.01,1.79,3.36,2.77,5.21.98,1.86,2.15,4.06,2.61,4.91.46.84,1.49,2.78,2.3,4.29s1.84,3.45,2.3,4.29,1.5,2.78,2.3,4.29c.8,1.52,1.84,3.45,2.3,4.29s1.91,3.6,3.22,6.14c1.31,2.53,2.49,4.74,2.61,4.91.13.17.99,1.76,1.92,3.53.93,1.77,1.96,3.7,2.29,4.29,1.98,3.52,3.88,7.07,6.69,12.42.97,1.86,2.19,4.13,2.7,5.06,1.34,2.43,8.53,16.74,9.32,18.56,1.82,4.18,2.16,5.04,2.67,6.65l.54,1.75,1.94-1.19c2.97-1.82,4.14-2.37,10.59-4.98,12.17-4.93,16.95-6.74,25.77-9.73,2.4-.81,6.05-2.13,6.9-2.49,5.62-2.35,20.36-7.01,33.43-10.56.84-.23,2.15-.62,2.91-.87.76-.25,3.24-1.03,5.52-1.73s4.49-1.39,4.91-1.54c.74-.26,6.41-1.99,10.89-3.33,1.18-.35,2.7-.77,3.37-.94.67-.16,1.99-.52,2.91-.79s2.24-.61,2.91-.77c2.53-.57,7.47-1.81,10.43-2.61,1.69-.46,3.76-1.02,4.6-1.24.84-.22,2.67-.76,4.06-1.2,9.16-2.87,12.84-3.98,16.33-4.91.93-.25,2.45-.67,3.37-.93.93-.27,2.24-.6,2.91-.75,2.81-.62,9.01-2.32,14.11-3.86,8.86-2.68,13.51-4,16.41-4.64,1.1-.24,2.48-.56,3.07-.7s1.52-.36,2.07-.48c1.26-.28,1.33-.05-.94-3.49-1.07-1.62-2.36-3.77-2.88-4.78s-1.23-2.39-1.58-3.07c-.72-1.39-3.1-6.57-3.1-6.75,0-.06-.55-1.31-1.23-2.76-.67-1.45-1.23-2.75-1.23-2.87s-.26-.77-.57-1.44c-.32-.66-3.64-8.59-7.39-17.62s-6.99-16.82-7.21-17.33c-.22-.51-1.25-3.2-2.3-5.98s-2.08-5.48-2.29-5.98c-.21-.51-.56-1.4-.77-1.99s-.56-1.49-.77-1.99c-.21-.51-.55-1.4-.77-1.99-.21-.59-.56-1.49-.77-1.99-.21-.51-.55-1.4-.77-1.99-.21-.59-.58-1.51-.81-2.04s-.42-1.12-.42-1.31-.12-.58-.27-.87c-.66-1.28-4.59-11.95-6.52-17.71-.51-1.52-1.04-3.04-1.19-3.37-.15-.34-1.73-5.03-3.52-10.43-1.79-5.4-3.38-10.09-3.53-10.43s-1.89-5.51-3.86-11.5-3.7-11.17-3.83-11.5c-.13-.34-.47-1.44-.76-2.45-.29-1.01-.7-2.39-.93-3.07s-.91-2.88-1.52-4.91c-.61-2.02-1.23-4.03-1.37-4.45s-.7-2.22-1.25-3.99c-.54-1.77-1.43-4.6-1.98-6.29-.55-1.69-1.24-3.9-1.53-4.91-.3-1.01-.74-2.46-.99-3.22s-.64-2.07-.86-2.91c-.23-.84-.78-2.71-1.23-4.14-.74-2.38-1.34-4.45-2-6.9-.14-.51-.82-2.92-1.53-5.37s-1.39-4.87-1.52-5.39c-.54-2.16-.42-2.19-5.51,1.44-2.6,1.86-5.44,3.95-6.31,4.66s-2.05,1.63-2.61,2.05c-4.81,3.62-7.48,5.89-10.98,9.33-9.24,9.08-8.47,9.6-20.18-13.62-2.34-4.64-5.05-9.87-6.03-11.62-.97-1.75-1.77-3.24-1.77-3.3s-.32-.64-.72-1.27c-.4-.63-1.18-1.97-1.74-2.98-3.91-7.07-2.97-6.6-7.82-3.87M545.76,170.85c.77.72.86,1.72.23,2.62-.41.59-1.24,1.01-4.24,2.16-1.91.73-3.91,1.55-5.87,2.42-.57.25-1.13.46-1.23.46s-1.23.48-2.51,1.07c-1.28.59-2.49,1.07-2.7,1.07s-.51.12-.67.26-1.05.57-1.98.96c-1.96.81-3.6,1.55-6.59,2.93-2.05.95-3.63,1.67-7.06,3.21-6.59,2.96-21.65,10.72-29.26,15.09-1.42.81-2.62,1.48-2.68,1.48s-1.01.55-2.11,1.23c-1.1.67-2.07,1.23-2.16,1.23s-1.25.69-2.6,1.53-2.52,1.53-2.62,1.53-.54.26-1,.57-3.04,1.93-5.74,3.6c-2.7,1.67-5.05,3.15-5.21,3.28-.75.62-6.41,4.2-6.64,4.2-.14,0-.26.11-.26.24s-.45.51-1,.83-1.14.7-1.3.84c-.17.14-2.86,2.07-5.98,4.29-3.12,2.23-5.94,4.3-6.27,4.6s-.7.55-.82.55-.41.17-.63.39c-.22.21-1.28,1.07-2.36,1.92-1.07.84-2.54,2.02-3.25,2.61s-1.83,1.49-2.47,1.99c-.65.51-1.33,1.06-1.51,1.23-.18.17-1.09.93-2.02,1.68-.93.76-2.17,1.83-2.76,2.37-.59.55-1.17,1-1.28,1s-.39.18-.61.41c-1.19,1.18-3.01,1.12-3.01-.09,0-.46,3.02-3.52,6.32-6.42.66-.58,1.9-1.68,2.75-2.45,3.01-2.71,3.69-3.29,6.88-5.87,8.04-6.49,22.38-16.85,23.33-16.85.13,0,.28-.11.34-.24.08-.2,4.1-2.88,6.32-4.21.29-.17,1.49-.93,2.68-1.69,1.18-.75,2.43-1.53,2.76-1.73.34-.2,1.85-1.11,3.37-2.04,1.52-.92,3.45-2.06,4.29-2.53s2.01-1.17,2.6-1.57c.59-.4,1.24-.72,1.46-.72s.39-.14.39-.31.12-.31.27-.31,1.82-.9,3.72-1.99c1.9-1.1,3.49-1.99,3.54-1.99s1.03-.53,2.19-1.19c6.07-3.43,19.79-10.33,27.56-13.84.84-.38,2.39-1.09,3.44-1.57,1.05-.48,2.77-1.23,3.83-1.68,1.06-.44,2.8-1.2,3.87-1.7,1.07-.49,2.07-.89,2.23-.89s.53-.13.82-.29c.29-.16,1.09-.52,1.76-.8s1.5-.63,1.84-.79c4.57-2.11,8.64-3,9.6-2.1M509.57,208.84c.07.53-.19.98-.92,1.62-1.1.95-16.1,8.49-23.11,11.61-7.06,3.14-13.19,6.11-18.71,9.04-1.86.99-3.68,1.94-4.06,2.12s-.69.43-.69.56-.14.23-.31.23c-.4,0-9.32,5.55-9.45,5.88-.06.14-.25.25-.42.25s-.79.41-1.37.92-1.17.92-1.31.92-.34.29-.43.64c-.26,1-1.56.68-1.69-.42-.14-1.18,2.33-3.57,6.74-6.53,1.24-.83,2.33-1.59,2.41-1.7.08-.1.29-.24.46-.31.17-.07,1.34-.81,2.61-1.64,2.7-1.79,7.97-4.85,10.58-6.15,1.01-.5,1.91-.99,1.99-1.08s1.19-.66,2.45-1.27c3.43-1.66,10.19-4.9,13.5-6.47,1.6-.76,4.78-2.28,7.06-3.37,4.9-2.35,8.81-4.17,9.66-4.51.34-.13.96-.39,1.38-.57,1.35-.57,1.67-.64,2.61-.58.72.05.94.22,1.02.79M521.83,238.8c1.13.26,2.3.61,2.59.77.29.16.67.29.83.29.49,0,3.7,1.57,5.77,2.82,1.06.64,2.06,1.17,2.22,1.17s.3.14.3.31.13.31.28.31c.9,0,6.28,4.07,9,6.81,2.12,2.13,2.04,2.12,3.79.48,6.69-6.27,12.97-8.89,21.43-8.93,11.38-.05,17.9,3.47,21.7,11.71.52,1.13.97,2.08,1,2.12.06.09,1.88-.47,2.76-.86,3.42-1.49,8.5-1.41,15.95.26,10.23,2.29,15.8,8.68,17.04,19.54.69,6.04.7,6.45.16,8.06-.91,2.74-2.42,4.06-5.85,5.12-2.02.62-2.72.98-5.65,2.87-1.08.7-2.19,1.27-2.45,1.27s-1.73.53-3.25,1.19-3.86,1.57-5.21,2.04c-2.29.79-6.47,2.29-7.52,2.69-.49.19-4.12,1.45-11.35,3.93-2.45.84-7.42,2.5-11.04,3.69-3.63,1.19-6.87,2.28-7.21,2.42s-1.99.69-3.68,1.23c-2.52.8-15.24,5.48-17.48,6.43-.34.14-1.3.49-2.15.78-.84.28-1.81.63-2.15.77-.34.14-2.75.97-5.37,1.84s-5.17,1.76-5.67,1.98c-1.45.63-3.78,1.69-6.44,2.93-1.35.63-4.39,1.93-6.75,2.89-5.51,2.23-5.42,2.19-12.14,5.54-3.14,1.56-6.73,3.28-7.98,3.83-1.25.54-4.55,2.09-7.33,3.44-6.37,3.09-7.72,3.62-9.15,3.62-.63,0-1.33.17-1.54.38-1.63,1.63-8.11-.1-10.54-2.81-8.84-9.83-6.57-27.66,4.52-35.55.17-.12.79-.58,1.38-1.02s2.04-1.32,3.22-1.96c1.18-.64,2.19-1.2,2.25-1.25s-.25-1.1-.68-2.33c-3.71-10.58-4.27-23.39-1.38-31.23,1.23-3.34,4.76-9.92,5.76-10.74.1-.08.8-.98,1.56-1.99,9.3-12.5,24.67-19.6,36.45-16.85M635.84,321.14c1,.38.95,1.54-.08,1.99-.38.17-.69.41-.69.54s-.19.23-.43.23-.82.21-1.3.46-1.16.46-1.51.46-.76.12-.92.26-1.19.5-2.28.8c-1.1.3-2.27.65-2.61.78-.34.13-1.37.47-2.3.76s-1.96.64-2.3.77-1.44.49-2.45.78c-1.01.3-2.12.65-2.45.79s-2.48.87-4.75,1.64c-2.28.76-6.76,2.3-9.97,3.41s-6.17,2.14-6.6,2.27c-1.42.46-4.44,1.6-5.41,2.03-.53.24-1.12.43-1.31.43s-.58.13-.87.29-2.12.86-4.06,1.56-3.8,1.38-4.14,1.51c-.61.25-2.83,1.11-3.99,1.55-3.35,1.27-5.75,2.25-7.87,3.18-.62.27-1.2.5-1.31.5s-.77.26-1.49.59c-.72.32-3.23,1.37-5.59,2.32-2.36.96-4.85,1.99-5.52,2.31-2.02.94-4.76,2.14-4.89,2.14-.07,0-1.13.47-2.37,1.03-4.41,2.03-5.13,2.34-5.45,2.34-.18,0-.32.14-.32.31s-.16.31-.37.31c-.52,0-11.45,5.35-19.66,9.62-4.44,2.31-6.05,2.64-6.05,1.25,0-.87.33-1.26,1.7-2.01.5-.27,2.09-1.19,3.53-2.03s3.44-1.99,4.45-2.54c1-.56,2.31-1.29,2.9-1.63,1.8-1.03,16.86-8.59,19.48-9.78,1.35-.61,3.63-1.62,5.06-2.24,2.92-1.26,3.68-1.6,6.19-2.74.96-.44,1.82-.79,1.91-.79s.92-.34,1.84-.77c.92-.42,1.75-.77,1.84-.77s1.07-.41,2.17-.92c1.11-.51,2.09-.92,2.19-.92s.61-.2,1.14-.45,2.97-1.22,5.41-2.15c2.45-.94,4.72-1.83,5.06-1.97.34-.15,1.1-.44,1.69-.65s1.49-.56,1.99-.77c.51-.21,2.51-.96,4.45-1.66s3.8-1.4,4.14-1.54,1.3-.49,2.15-.78c.84-.28,1.81-.64,2.15-.8.34-.15,1.03-.4,1.53-.55.51-.15,1.89-.64,3.07-1.08,1.18-.44,3.39-1.22,4.91-1.73,1.52-.51,2.97-1.04,3.23-1.18.26-.14.95-.36,1.53-.48.58-.13,1.2-.33,1.37-.45.17-.12,1.34-.54,2.61-.92,1.27-.39,3.47-1.08,4.91-1.54,1.43-.46,3.44-1.07,4.45-1.35s2.25-.63,2.76-.78c4.27-1.27,8.12-1.77,9.51-1.24"/>
    </g>
    <g id="path2">
      <path class="st2" d="M598.88,134.03c-.71.23-.69.25.23.21.55-.02,1-.15,1-.28,0-.28-.18-.27-1.23.07M575.71,158.95l-1.21,1.3,1.3-1.21c1.21-1.13,1.44-1.4,1.21-1.4-.05,0-.64.59-1.3,1.3M572.33,162.32l-.9,1,1-.9c.55-.49,1-.94,1-1,0-.24-.25-.03-1.09.9M516.3,238.53c.38.07.93.07,1.23,0,.29-.08-.02-.14-.69-.13-.67,0-.91.07-.53.14M584.46,247.61c0,.05.45.5,1,1l1,.9-.9-1c-.84-.93-1.09-1.14-1.09-.9M543.9,252.73c.97,1.04,1.01,1.05,1.53.47.52-.56.52-.57,0-.17-.48.36-.67.3-1.53-.47l-.99-.88.99,1.06"/>
    </g>
    <g id="path3">
      <path class="st1" d="M549.12,119.22c.55.07,1.38.07,1.84,0s.01-.13-1-.12c-1.01,0-1.39.06-.84.13M554.71,119.92c.42.14,1.11.24,1.53.24.69,0,.67-.03-.15-.24-1.3-.33-2.41-.33-1.38,0M541.88,120.61c.26.21.78.9,1.16,1.53,1.01,1.69,1.08,1.4.1-.38-.46-.84-1.04-1.53-1.29-1.53-.37,0-.36.06.03.38M561.08,120.75c.38.07.93.07,1.23,0,.29-.08-.02-.14-.69-.13-.67,0-.91.07-.53.14M539.6,121.32c-1.15.62-1.08.88.08.28.51-.26.92-.54.92-.62,0-.2-.03-.19-1,.34M551.16,124.13c.63,1.17,1.71,2.73,1.71,2.47s-1.88-3.32-2.05-3.32c-.06,0,.09.38.34.84M530.09,126.63c-1.87,1.1-2.28,1.52-.69.71,1.18-.61,2.62-1.58,2.3-1.57-.08,0-.81.39-1.61.86M545.51,126.49c0,.23,1.28,2.32,1.42,2.32.07,0-.15-.55-.5-1.23-.55-1.08-.92-1.52-.92-1.09M525.19,129.4c-1.39.89-1.39,1.07,0,.36.72-.36,1.3-.72,1.3-.8,0-.26-.44-.11-1.31.44M555.02,130.65c.34.67.7,1.23.78,1.23s-.13-.55-.47-1.23c-.34-.67-.7-1.23-.78-1.23s.13.55.47,1.23M520.58,132.15c-1.87,1.1-2.28,1.52-.69.71,1.18-.61,2.62-1.58,2.3-1.57-.08,0-.81.39-1.61.86M549.19,133.11c.34.67.69,1.23.78,1.23s-.13-.55-.47-1.23c-.34-.67-.69-1.23-.78-1.23s.13.55.47,1.23M556.86,134.03c.51,1.01,1,1.84,1.08,1.84s-.26-.83-.78-1.84c-.51-1.01-1-1.84-1.08-1.84s.26.83.78,1.84M517.37,134.06c-1.05.67-1.38,1.12-.46.61.7-.39,1.81-1.24,1.61-1.25-.08,0-.6.28-1.15.63M596.35,134.51c-.46.25-.84.53-.84.61s.3,0,.67-.21c.37-.2,1.02-.47,1.46-.6.61-.19.65-.24.17-.25-.34,0-.99.19-1.46.44M514.73,135.6c-.65.34-1.11.69-1.04.77.15.15,2.37-1.07,2.37-1.29,0-.17-.02-.16-1.33.53M591.98,137.58l-.92.79,1-.66c.55-.36,1-.72,1-.79,0-.23-.13-.15-1.07.66M589.77,139.12l-.86.79,1-.66c.91-.61,1.21-.93.86-.93-.08,0-.52.36-1,.79M599.65,140.34l-.92.79.97-.64.97-.64.2.64c.27.84.48.62.25-.26-.22-.86-.36-.85-1.49.12M560.6,141.23c.37.76.72,1.32.78,1.26.14-.14-1.1-2.63-1.31-2.63-.08,0,.16.62.52,1.37M585.69,142.18c-1.6,1.27-3.12,2.53-3.37,2.8-.52.56,3.89-2.78,5.52-4.18,2.03-1.74.76-.92-2.15,1.39M505.71,141.12c-1.05.67-1.38,1.12-.46.61.7-.39,1.81-1.24,1.61-1.25-.08,0-.6.28-1.15.63M597.5,141.88l-.92.79,1-.66c.55-.36,1-.72,1-.79,0-.23-.13-.15-1.07.66M501.49,143.73c-1.57,1.04-2.12,1.58-.89.89,1.08-.61,2.51-1.68,2.28-1.69-.09,0-.71.36-1.38.8M562.07,144.15c.34.67.7,1.23.78,1.23s-.13-.55-.47-1.23c-.34-.67-.7-1.23-.78-1.23s.13.55.47,1.23M594.13,144.17c-1.82,1.38-2.06,1.76-.36.57,1.29-.9,1.99-1.53,1.68-1.5-.05,0-.65.43-1.32.94M579.79,146.78c-.97.77-1.76,1.47-1.76,1.55s.83-.5,1.84-1.3c1.62-1.27,2.04-1.67,1.76-1.66-.04,0-.87.63-1.84,1.41M589.22,147.87c-1.88,1.52-2.47,2.13-1.23,1.26,1.13-.78,3.12-2.5,2.91-2.5-.08,0-.84.56-1.69,1.24M493.44,148.79c-1.05.67-1.38,1.12-.46.61.7-.39,1.81-1.24,1.61-1.25-.08,0-.6.28-1.15.63M573.15,152.6l-4.3,4.16-.49-.94c-.67-1.3-.88-1.18-.25.14.28.59.61,1.04.72,1,.32-.13,8.97-8.52,8.78-8.52-.09,0-2.1,1.87-4.47,4.16M490.97,150.42c-1.42,1.01-1.63,1.29-.42.61.56-.32,1.17-.76,1.34-.97.45-.54.24-.46-.92.36M558.45,151.04c.37.75.72,1.32.78,1.26.14-.14-1.1-2.63-1.31-2.63-.08,0,.16.62.52,1.37M585.37,150.93l-1.37,1.24,1.38-1.02c.76-.56,1.44-1.05,1.51-1.1s.06-.14-.01-.22c-.08-.08-.76.42-1.51,1.1M487.31,152.77c-1.05.67-1.38,1.12-.46.61.7-.39,1.81-1.24,1.61-1.25-.08,0-.6.28-1.15.63M581.93,153.53c-.97.77-1.76,1.47-1.76,1.55s.83-.5,1.84-1.3c1.62-1.27,2.04-1.67,1.76-1.66-.04,0-.87.63-1.84,1.41M604.45,152.74c0,.25.12.74.26,1.07.17.39.26.44.26.15,0-.25-.12-.74-.26-1.07-.17-.39-.26-.44-.26-.15M559.93,153.96c.34.67.69,1.23.78,1.23s-.13-.55-.47-1.23c-.34-.67-.69-1.23-.78-1.23s.13.55.47,1.23M483.78,155.06c-.63.41-1.15.83-1.15.92,0,.23,1.82-.86,2.21-1.33.44-.53.27-.46-1.06.41M605.33,155.98c0,.32.14.8.32,1.05.23.34.26.21.1-.46-.25-1.13-.43-1.37-.42-.59M575.56,159.35c-4.54,4.56-5.83,5.45-7.63,5.26-.84-.09-1.18-.04-.92.12.83.53,2.32.27,3.67-.63,1.21-.81,8.93-8.3,8.56-8.3-.08,0-1.74,1.59-3.68,3.54M479.17,158.11c-1.14.76-2.07,1.45-2.07,1.54s.97-.49,2.15-1.28c1.88-1.25,2.38-1.64,2.07-1.64-.04,0-1.01.62-2.15,1.39M475.65,160.44c-1.05.67-1.38,1.12-.46.61.7-.39,1.81-1.24,1.61-1.24-.08,0-.6.28-1.15.63M471.78,163.01c-2.23,1.52-3.84,2.81-2.64,2.12,1.06-.61,5.2-3.52,5.2-3.65,0-.21.03-.23-2.57,1.54M465.94,166.99c-1.82,1.29-2.2,1.67-.95.95,1-.58,2.86-2.01,2.61-2.02-.09,0-.83.48-1.65,1.06M543.15,170.46c-.2.13.23.23.97.22.73,0,1.27-.11,1.19-.24-.18-.3-1.68-.29-2.16,0M456.06,173.78c-2.38,1.7-3.53,2.63-2.58,2.1.84-.47,5.22-3.56,5.22-3.69,0-.25-.25-.1-2.64,1.59M536.69,172.68c-1.03.41-.84.62.23.25.51-.18.92-.38.92-.44,0-.18-.37-.12-1.15.19M525.57,177.43c-.42.24-.63.44-.46.44s.65-.2,1.07-.44.63-.44.46-.44-.65.2-1.07.44M448.27,179.31c-2.28,1.66-3.4,2.62-2.45,2.09.79-.45,4.91-3.53,4.91-3.68,0-.21.03-.23-2.45,1.59M443.67,182.7c-2.05,1.58-2.24,1.91-.31.55.93-.65,1.74-1.23,1.81-1.28s.07-.15,0-.22-.75.36-1.51.94M517.6,185.71c-.42.24-.63.44-.46.44s.65-.2,1.07-.44.63-.44.46-.44-.65.2-1.07.44M436.62,187.89c-1.7,1.33-2.64,2.29-1.38,1.41,1.11-.77,3.13-2.5,2.91-2.5-.08,0-.77.49-1.53,1.08M431.56,191.88l-1.23,1.1,1.3-.97c1.12-.84,1.53-1.24,1.23-1.23-.04,0-.63.5-1.3,1.1M492.98,193.25c-.63.33-1.15.68-1.15.76s.55-.13,1.23-.47c.67-.34,1.23-.69,1.23-.77,0-.13-.43.03-1.3.49M428.06,194.49c-.4.33-.68.65-.61.71.07.06.45-.15.85-.48s.68-.65.61-.71c-.07-.07-.45.15-.85.48M424.04,197.71c-2.1,1.74-3.03,2.7-1.38,1.42,1.69-1.31,3.41-2.81,3.22-2.82-.08,0-.91.62-1.84,1.39M619.16,200.9c0,.25.18.87.41,1.38.54,1.18.55.63.01-.77-.23-.59-.42-.87-.42-.61M416.53,203.84c-2.57,2.13-4.68,4.1-3.07,2.85,1.51-1.17,5.98-4.95,5.98-5.06,0-.21-.09-.14-2.91,2.21M621.45,207.95c.11.42.33.97.49,1.23.2.32.22.23.08-.31-.11-.42-.33-.97-.49-1.23-.2-.32-.22-.23-.08.31M409,210.19c-1.51,1.41-1.14,1.23.71-.33.64-.54,1.05-.98.92-.97-.13,0-.87.59-1.63,1.3M470.28,210.68c-1.26.81-1.44,1.09-.32.53.54-.27,1.06-.64,1.17-.81.25-.4.17-.37-.84.28M402.57,215.5c-3.4,2.85-5.52,4.77-3.83,3.46,1.68-1.3,7.82-6.47,7.82-6.59,0-.22-.06-.17-3.99,3.12M462.77,215.35c-1.05.67-1.38,1.12-.46.61.7-.39,1.81-1.24,1.61-1.25-.08,0-.6.28-1.15.63M452.64,217.62c-.88.6-1.61,1.15-1.61,1.23s.76-.36,1.69-.97c1.47-.98,1.91-1.34,1.61-1.34-.04,0-.8.49-1.69,1.08M396.28,220.56c-2.13,1.72-2.42,2.09-.69.88,1.3-.91,2.68-2.16,2.35-2.13-.07,0-.81.57-1.66,1.25M390.68,224.55c-1.05.67-1.38,1.12-.46.61.7-.39,1.81-1.24,1.61-1.25-.08,0-.6.28-1.15.63M440.76,226.23l-1.23,1.1,1.3-.97c1.12-.84,1.53-1.24,1.23-1.23-.04,0-.63.5-1.3,1.1M445.36,227.15l-.92.79,1-.66c.55-.36,1-.72,1-.79,0-.23-.13-.15-1.07.66M436.77,229.3c-.94.84-1.01.95-.28.47.86-.56,1.91-1.58,1.62-1.57-.06,0-.67.5-1.34,1.1M628.5,228.81c.11.42.33.97.49,1.23.2.32.22.23.08-.31-.11-.42-.33-.97-.49-1.23-.2-.32-.22-.23-.08.31M389.07,230.04c.36.51.72.92.81.92s-.14-.41-.5-.92-.72-.92-.81-.92.14.41.5.92M390.61,232.18c.36.51.72.92.81.92s-.14-.41-.5-.92-.72-.92-.81-.92.14.41.5.92M630.04,233.41c.11.42.33.97.49,1.23.2.32.22.23.08-.31-.11-.42-.33-.97-.49-1.23-.2-.32-.22-.23-.08.31M427.72,236.81l-1.69,1.56,1.76-1.45c1.55-1.27,1.97-1.69,1.69-1.67-.04,0-.84.7-1.76,1.56M394.18,237.17c.95,1.56,3.3,4.69,2.71,3.6-.43-.8-2.68-3.99-2.82-3.99-.07,0-.02.17.1.38M453.56,238.66c-1.05.67-1.38,1.12-.46.61.7-.39,1.81-1.24,1.61-1.24-.08,0-.6.28-1.15.63M511.92,238.63c-.54.14.03.17,1.38.07,1.27-.09,2.36-.21,2.43-.27.24-.2-2.88-.04-3.81.2M517.93,238.43c.07.06.96.19,1.97.28,1.14.11,1.55.08,1.07-.08-.76-.25-3.29-.42-3.04-.2M448,240.32c-.52.6-.95,1.18-.95,1.29s.1.07.23-.09.64-.74,1.13-1.29c.49-.55.82-1,.72-1s-.61.49-1.13,1.08M423.19,240.78c-.55.5-.89.91-.75.91s.65-.41,1.14-.92c1.13-1.18.91-1.17-.39,0M449.96,241.27c-.55.47-.66.66-.28.47.56-.28,1.62-1.29,1.32-1.26-.06,0-.53.36-1.03.79M398.15,242.99c.62.97,1.19,1.76,1.26,1.76.21,0-.9-1.78-1.68-2.69-.39-.46-.2-.05.42.92M425.86,242.23l-.74.84.92-.77c.51-.42.98-.8,1.05-.84.07-.04,0-.08-.18-.08s-.64.38-1.05.84M447.25,242.99c.08.13.4.23.72.23s.64-.1.72-.23c.08-.13-.25-.23-.72-.23s-.8.1-.72.23M567.22,242.84c.72.06,1.83.06,2.45,0,.63-.07.04-.12-1.31-.12s-1.86.05-1.14.12M562.07,243.22c-1.03.33.08.33,1.38,0,.83-.21.84-.23.15-.24-.42,0-1.11.1-1.53.24M418.83,244.91c-.75.76-1.29,1.38-1.2,1.38s.76-.62,1.51-1.38c.74-.76,1.29-1.38,1.2-1.38s-.76.62-1.51,1.38M495.91,245.24l-.86.79,1-.69c.55-.38,1-.74,1-.79,0-.24-.34-.03-1.13.69M556.94,244.77c-1.03.41-.84.62.23.25.51-.18.92-.38.92-.44,0-.18-.37-.12-1.15.19M399.88,245.76c.24.38,1.04,1.69,1.76,2.91s1.37,2.22,1.45,2.22c.17,0,.22.09-1.71-3.14-.88-1.48-1.68-2.68-1.77-2.68s.03.31.28.69M535.54,245.58c.17.16,1.07.81,1.99,1.44,1.22.82,1.42.9.71.28-.91-.8-3.38-2.37-2.71-1.72M554.33,246.01c-.63.33-1.15.68-1.15.76,0,.14,2.42-1,2.73-1.28.35-.32-.57-.02-1.58.52M582.62,246.07c0,.06.45.44,1,.84.62.45.83.53.56.19-.41-.5-1.56-1.26-1.56-1.03M490.13,250.36c-2.54,2.6-5.42,5.8-3.94,4.37,1.47-1.43,6.95-7.21,6.84-7.21-.07,0-1.37,1.28-2.89,2.84M540.05,248.91c.46.48.89.82.96.74s-.31-.47-.83-.88l-.96-.74.83.88M547.96,250.62l-1.69,1.56,1.76-1.44c1.55-1.27,1.97-1.69,1.69-1.67-.04,0-.84.7-1.76,1.56M542.44,251.05c.57.59,1.11,1.07,1.19,1.07s-.31-.48-.89-1.07c-.57-.59-1.11-1.07-1.19-1.07s.32.48.89,1.07M588.48,252.56c.35.6.7,1.09.78,1.09.22,0-.78-1.79-1.11-1.99-.17-.1-.02.3.33.9M597.83,254.84c-.5.11.75.2,2.76.2s3.25-.08,2.74-.19c-1.17-.25-4.33-.26-5.5,0M406.25,256.72c.34.67.7,1.23.78,1.23s-.13-.55-.47-1.23c-.34-.67-.69-1.23-.78-1.23s.13.55.47,1.23M606.88,255.6c.07.06.54.2,1.05.32.67.15.8.12.46-.11-.41-.28-1.82-.48-1.51-.21M590.3,256.32c0,.2.12.44.27.53.29.18,2.3-.43,2.09-.64-.07-.07-.51.02-.99.2-.66.25-.92.23-1.11-.07-.18-.28-.25-.29-.26-.03M610.08,256.41c.34.14.82.26,1.07.26.29,0,.23-.1-.15-.26-.34-.14-.82-.26-1.07-.26-.29,0-.23.1.15.26M483.13,258.64l-.55,1,.63-.77c.56-.68.81-1.23.56-1.23-.05,0-.34.45-.64,1M408.09,260.09c.51,1.01,1,1.84,1.08,1.84s-.27-.83-.78-1.84-1-1.84-1.08-1.84.26.83.78,1.84M617.9,259.68c1,.71,4.33,4.04,5.01,5.02.48.68.48.66-.01-.25-.69-1.28-3.31-3.89-4.71-4.7-.67-.39-.78-.41-.29-.07M480.16,263.5c-.35.69-.59,1.31-.52,1.37s.42-.5.78-1.26c.84-1.72.61-1.82-.26-.12M623.44,265.77c0,.17.2.65.44,1.07s.44.63.44.46-.2-.65-.44-1.07-.44-.63-.44-.46M641.68,266.31c.11.38.33.83.49.99.15.17.13-.15-.06-.69-.39-1.11-.75-1.37-.42-.3M412.54,268.38c.43.84.85,1.53.93,1.53s-.2-.69-.62-1.53c-.43-.84-.85-1.53-.93-1.53s.2.69.62,1.53M643.22,270.29c.11.38.33.83.49.99.15.17.13-.15-.06-.69-.39-1.11-.75-1.37-.42-.3M625.3,270.52c0,.25.12.74.26,1.07.17.39.26.44.26.15,0-.25-.12-.74-.26-1.07-.17-.39-.26-.44-.26-.15M476.7,273.25c-.11.57-.19,1.32-.17,1.68s.16.03.31-.73.23-1.52.17-1.68c-.05-.17-.19.16-.3.73M626.08,273.9c.1.76.23,1.44.29,1.51.23.27.06-1.69-.2-2.27-.18-.41-.21-.16-.09.77M644.75,274.28c.12.38.34.83.49.99.15.17.13-.15-.06-.69-.39-1.11-.75-1.37-.43-.3M416.99,276.66c.34.67.7,1.23.78,1.23s-.13-.55-.47-1.23c-.34-.67-.69-1.23-.78-1.23s.13.55.47,1.23M476.31,280.8c0,2.19.05,3.05.11,1.9s.06-2.94,0-3.99-.11-.11-.11,2.08M646.29,278.27c.12.38.34.83.49.99.15.17.13-.15-.06-.69-.39-1.11-.75-1.37-.43-.3M626.89,280.95c0,1.1.06,1.54.12,1,.07-.55.07-1.45,0-1.99-.07-.55-.12-.1-.12,1M625.87,284.94c-.21.52-.89,1.37-1.5,1.88-.61.52-.83.8-.49.63,1.09-.55,2.9-2.94,2.52-3.32-.08-.08-.31.29-.53.81M476.53,287.42c.02.58.15,1.46.29,1.97.16.61.19.29.08-.92-.19-2.03-.42-2.7-.36-1.05M424.04,289.54c.34.67.7,1.23.78,1.23s-.13-.55-.47-1.23c-.34-.67-.7-1.23-.78-1.23s.13.55.47,1.23M616.28,290.63c-.63.43-1.14.84-1.14.92s.55-.22,1.23-.67c1.07-.71,1.43-1.04,1.14-1.04-.05,0-.6.35-1.23.78M425.58,292.3c.34.67.7,1.23.78,1.23s-.13-.55-.47-1.23c-.34-.67-.7-1.23-.78-1.23s.13.55.47,1.23M613.45,292.32c-.67.32-1.05.58-.83.59.45,0,2.21-.85,2.21-1.07,0-.18.09-.21-1.38.48M477.42,292.79c0,.32.14.79.32,1.05.23.34.26.21.11-.46-.25-1.13-.43-1.37-.42-.59M601.49,296.8c-1.95.83-2.63,1.25-1.43.88,1.08-.33,3.93-1.66,3.58-1.67-.17,0-1.13.35-2.15.78M478.82,297.82c.11.42.33.97.49,1.23.2.32.22.23.08-.31-.11-.42-.33-.97-.49-1.23-.2-.32-.22-.23-.08.31M429.41,299.36c.26.51.54.92.63.92s-.06-.41-.32-.92-.54-.92-.63-.92.06.41.32.92M431.1,302.42c.34.67.7,1.23.78,1.23s-.13-.55-.47-1.23c-.34-.67-.7-1.23-.78-1.23s.13.55.47,1.23M480.17,301.77c0,.15-.42.44-.93.65-.51.21-1.01.51-1.11.67-.1.16.39,0,1.08-.35,1.05-.54,1.68-1.24,1.11-1.24-.08,0-.15.12-.15.27M587.07,301.98c-.77.37-.79.41-.15.26.87-.21,1.85-.71,1.38-.7-.17,0-.72.2-1.23.45M432.63,305.19c.34.67.69,1.23.78,1.23s-.13-.55-.47-1.23c-.34-.67-.7-1.23-.78-1.23s.13.55.47,1.23M474.83,305.03c-.83.59-1.4,1.07-1.28,1.07.25,0,2.94-1.87,2.94-2.05,0-.19-.16-.1-1.67.97M471.99,307.2l-.86.79,1-.69c.55-.38,1-.74,1-.79,0-.24-.34-.03-1.13.69M468.99,309.84c-.78.87-1.56,1.87-1.72,2.22-.17.36.01.24.4-.27.38-.5,1.23-1.5,1.89-2.22.65-.73,1.12-1.32,1.03-1.32s-.81.71-1.59,1.59M435.7,310.71c.34.67.69,1.23.78,1.23s-.13-.55-.47-1.23c-.34-.67-.69-1.23-.78-1.23s.13.55.47,1.23M555.48,312.71c-.77.37-.79.41-.15.26.87-.21,1.85-.71,1.38-.7-.17,0-.72.2-1.23.45M441.83,322.06c.34.67.7,1.23.78,1.23s-.13-.55-.47-1.23c-.34-.67-.7-1.23-.78-1.23s.13.55.47,1.23M633.47,321.05c.38.07,1,.07,1.38,0s.07-.13-.69-.13-1.07.06-.69.13M463.5,322.74c-.11.89-.18,2.52-.15,3.61.03,1.52.1,1.15.29-1.52.27-3.7.19-4.83-.14-2.09M623.77,323.02c-.57.16-.97.35-.9.42.16.16,2.39-.44,2.39-.64,0-.18-.24-.15-1.49.21M664.85,323.74c0,.17.2.65.44,1.07s.44.63.44.46-.2-.65-.44-1.07-.44-.63-.44-.46M524.65,324.36c-.42.24-.63.44-.46.44s.65-.2,1.07-.44.63-.44.46-.44-.65.2-1.07.44M632.78,324.37c-.77.37-.8.41-.15.26.42-.1.9-.31,1.06-.46.4-.37.18-.32-.9.2M521.28,325.89c-.42.24-.63.44-.46.44s.65-.2,1.07-.44.63-.44.46-.44-.65.2-1.07.44M666.38,327.42c0,.17.2.65.44,1.07s.44.63.44.46-.2-.65-.44-1.07-.44-.63-.44-.46M463.68,329.42c0,.59.06.83.14.54.08-.3.08-.78,0-1.07-.08-.3-.14-.05-.14.54M447.35,332.48c.34.67.7,1.23.78,1.23s-.13-.55-.47-1.23c-.34-.67-.7-1.23-.78-1.23s.13.55.47,1.23M464.23,332.36c0,.32.14.79.32,1.05.23.34.26.21.11-.46-.25-1.13-.43-1.37-.42-.59M505.56,332.81c-.97.5-1.76.98-1.76,1.06,0,.14,3.65-1.6,3.96-1.89.4-.37-.67.03-2.2.82M602.1,334.49c-.77.37-.79.41-.15.26.87-.21,1.85-.71,1.38-.7-.17,0-.72.2-1.23.45M465.01,334.94c.11.42.33.97.49,1.23.2.32.22.23.08-.31-.11-.42-.33-.97-.49-1.23-.2-.32-.22-.23-.08.31M496.74,337.09c-.59.32-.94.59-.77.59s.79-.26,1.38-.59c.59-.32.94-.59.77-.59s-.79.26-1.38.59M466.37,338.19c0,1.38,5.04,6.53,5.73,5.84.08-.08-.15-.24-.51-.36-1.07-.34-2.79-2.02-4.04-3.96-.65-1-1.17-1.68-1.17-1.53M589.22,339.09c-.77.37-.8.41-.15.26.42-.1.9-.31,1.06-.46.4-.37.18-.32-.91.2M451.96,341.07c.34.67.69,1.23.78,1.23s-.13-.55-.47-1.23c-.34-.67-.69-1.23-.78-1.23s.13.55.47,1.23M569.82,342.31c-1.03.41-.83.62.23.25.51-.18.92-.38.92-.44,0-.18-.37-.12-1.15.19M674.04,343.64c0,.32,1.21,2.34,1.41,2.34.08,0-.07-.38-.32-.84-.67-1.23-1.08-1.8-1.09-1.49M475.34,344.97c.46.07,1.22.07,1.69,0,.46-.07.08-.13-.84-.13s-1.31.06-.84.13M676.08,347.23c.31.52.75,1.11.99,1.3.24.2.05-.23-.42-.94-.99-1.51-1.39-1.76-.57-.36M566.83,347.68c-.77.37-.8.41-.15.26.42-.1.9-.31,1.06-.46.4-.37.18-.32-.91.2M457.02,350.58c.59,1.18,1.15,2.15,1.23,2.15s-.33-.97-.93-2.15-1.15-2.15-1.23-2.15.33.97.93,2.15M563.15,349.21c-.77.37-.8.41-.15.26.42-.1.9-.31,1.06-.46.4-.37.18-.32-.91.2M678.19,350.35c.16.41.04.54-.52.57-.57.03-.6.07-.15.18.79.2,1.36-.4.85-.91-.31-.31-.35-.28-.18.15M546.12,352.58c-.42.24-.63.44-.46.44s.65-.2,1.07-.44.63-.44.46-.44-.65.2-1.07.44M670.04,352.74c-.34.23-.21.26.46.1,1.13-.25,1.37-.43.59-.42-.32,0-.8.14-1.05.32M667.74,353.34c-.39.17-.44.26-.15.26.25,0,.74-.12,1.07-.26.39-.17.44-.26.15-.26-.25,0-.74.12-1.07.26M659.96,355.53c-.57.16-.97.35-.9.42.16.16,2.39-.44,2.39-.64,0-.18-.24-.15-1.49.21M648.88,358.88c-.34.23-.21.26.46.11,1.13-.25,1.37-.43.59-.42-.32,0-.79.14-1.05.32M462.08,360.09c.34.67.7,1.23.78,1.23s-.13-.55-.47-1.23c-.34-.67-.7-1.23-.78-1.23s.13.55.47,1.23M646.58,359.48c-.39.17-.44.26-.15.26.25,0,.74-.12,1.07-.26.39-.17.44-.26.15-.26-.25,0-.74.12-1.07.26M643.05,360.41c-.34.23-.21.26.46.11,1.13-.25,1.37-.43.59-.42-.32,0-.8.14-1.05.32M640.44,361.01l-.61.26.61.02c.34,0,.82-.12,1.07-.28.61-.39-.16-.39-1.07,0M629.4,364.08c-.39.17-.44.26-.15.26.25,0,.74-.12,1.07-.26.39-.17.44-.26.15-.26-.25,0-.74.12-1.07.26M624.49,365.61c-.39.17-.44.26-.15.26.25,0,.74-.12,1.07-.26.39-.17.44-.26.15-.26-.25,0-.74.12-1.07.26M613.95,368.72c-.57.16-.97.36-.9.43s.74-.06,1.49-.29c1.53-.48,1.01-.6-.59-.13M611,369.6c-.39.17-.44.26-.15.26.25,0,.74-.12,1.07-.26.39-.17.44-.26.15-.26-.25,0-.74.12-1.07.26M605.02,371.13c-.62.2-.65.25-.15.25.34,0,.89-.11,1.23-.25.78-.34-.02-.34-1.07,0M601.34,372.07c-.34.23-.21.26.46.11,1.13-.25,1.37-.43.59-.42-.32,0-.79.14-1.05.32M598.73,372.67l-.61.26.61.02c.34,0,.82-.12,1.07-.28.61-.39-.16-.39-1.07,0M587.69,375.73c-.39.17-.44.26-.15.26.25,0,.74-.12,1.07-.26.39-.17.44-.26.15-.26-.25,0-.74.12-1.07.26M564.83,382.79c-.41.26-.41.3,0,.3.25,0,.67-.13.92-.3.41-.26.41-.3,0-.3-.25,0-.67.13-.92.3M559.47,384.32c-.39.17-.44.26-.15.26.25,0,.74-.12,1.07-.26.39-.17.44-.26.15-.26-.25,0-.74.12-1.07.26M475.88,385.86c.34.67.69,1.23.78,1.23s-.13-.55-.47-1.23c-.34-.67-.7-1.23-.78-1.23s.13.55.47,1.23M556.09,385.24c-.39.17-.44.26-.15.26.25,0,.74-.12,1.07-.26.39-.17.44-.26.15-.26-.25,0-.74.12-1.07.26M553.94,385.86c-.39.17-.44.26-.15.26.25,0,.74-.12,1.07-.26.39-.17.44-.26.15-.26-.25,0-.74.12-1.07.26M548.88,387.39c-.41.26-.41.3,0,.3.25,0,.67-.13.92-.3.41-.26.41-.3,0-.3-.25,0-.67.13-.92.3M537.69,391.24c-.77.37-.79.41-.15.26.87-.21,1.85-.71,1.38-.7-.17,0-.72.2-1.23.45M479.93,393.67c.37.76.72,1.32.78,1.26.14-.14-1.1-2.63-1.31-2.63-.08,0,.16.62.52,1.37M530.94,393.69c-.77.37-.79.41-.15.26.87-.21,1.85-.71,1.38-.7-.17,0-.72.2-1.23.45M526.64,395.22c-.77.37-.79.41-.15.26.87-.21,1.85-.71,1.38-.7-.17,0-.72.2-1.23.45M481.46,396.74c.37.75.72,1.32.78,1.26.14-.14-1.1-2.63-1.31-2.63-.08,0,.16.62.52,1.37M517.75,398.29c-.77.37-.79.41-.15.26.87-.21,1.85-.71,1.38-.7-.17,0-.72.2-1.23.45M483.88,401.65c0,.17.2.65.44,1.07s.44.63.44.46-.2-.65-.44-1.07-.44-.63-.44-.46M505.94,402.88c-.42.24-.63.44-.46.44s.65-.2,1.07-.44.63-.44.46-.44-.65.2-1.07.44M502.26,404.41c-.42.24-.63.44-.46.44s.65-.2,1.07-.44.63-.44.46-.44-.65.2-1.07.44M499.96,405.35c-.77.37-.79.41-.15.26.87-.21,1.85-.71,1.38-.7-.17,0-.72.2-1.23.45M494.59,407.48c-.42.24-.63.44-.46.44s.65-.2,1.07-.44.63-.44.46-.44-.65.2-1.07.44"/>
    </g>
    <g id="path4">
      <path class="st4" d="M552.56,119.3c.42.13,1.04.25,1.38.25.49,0,.45-.05-.15-.25-.42-.14-1.04-.25-1.38-.25-.49,0-.45.05.15.25M558.01,120.13c.38.07.93.07,1.23,0,.29-.08-.02-.14-.69-.13-.67,0-.92.07-.53.14M563.76,120.84c.34.14.82.26,1.07.26.29,0,.23-.1-.15-.26-.34-.15-.82-.26-1.07-.26-.29,0-.23.1.15.26M599.8,133.75c.74.43.86.57.38.48-.38-.08-.61-.02-.52.14.23.37,1.36.36,1.36-.02,0-.16-.41-.51-.91-.77-1.32-.69-1.58-.55-.32.18M592.31,137.56c-.83.57-1.73,1.27-1.99,1.55-.27.27.45-.14,1.59-.93s2.07-1.49,2.07-1.56c0-.2-.04-.17-1.66.95M502.64,142.65c-1.05.67-1.38,1.12-.46.61.7-.39,1.81-1.24,1.61-1.24-.08,0-.6.28-1.15.63M499.81,144.48c-.51.42-.56.52-.15.31,1-.52,1.56-.94,1.23-.94-.17,0-.65.28-1.07.63M492.52,149.09c-1.05.67-1.38,1.12-.46.61.7-.39,1.81-1.24,1.61-1.25-.08,0-.6.28-1.15.63M604.28,151.36c.25,1.13.43,1.37.42.59,0-.32-.14-.8-.32-1.05-.23-.34-.26-.21-.11.46M571.71,154.28c-1.7,1.68-3.01,3.06-2.91,3.06s1.56-1.38,3.24-3.07,2.99-3.07,2.91-3.06c-.08,0-1.54,1.38-3.24,3.07M580.38,154.43c-.47.42-.74.76-.59.76s.59-.35.99-.77c.92-.98.71-.97-.4,0M560.85,155c0,.33.91,2.03,1.09,2.03.08,0-.07-.45-.35-1-.57-1.12-.74-1.35-.74-1.03M578.01,156.65l-1.06,1.15,1.15-1.06c1.07-.98,1.29-1.24,1.06-1.24-.05,0-.57.52-1.15,1.15M478.41,158.29c-1.05.67-1.38,1.12-.46.61.7-.39,1.81-1.24,1.61-1.25-.08,0-.6.28-1.15.63M474.73,160.75c-1.05.67-1.38,1.12-.46.61.7-.39,1.81-1.24,1.61-1.24-.08,0-.6.28-1.15.63M469.51,164.25c-.88.6-1.61,1.15-1.61,1.23s.76-.36,1.69-.97c1.47-.98,1.91-1.34,1.61-1.34-.04,0-.8.49-1.69,1.08M566.98,164.4c.25.16.86.3,1.36.3,1.19,0,.93-.17-.59-.4-.84-.13-1.08-.09-.77.1M454.11,174.83c-1.43,1.01-2.49,1.83-2.37,1.83.27,0,5.12-3.37,5.12-3.55,0-.21-.05-.18-2.75,1.72M448.43,178.99l-.92.79,1-.66c.55-.36,1-.72,1-.79,0-.23-.13-.15-1.07.66M438.15,186.52c-.71.63-.74.72-.09.28.54-.36,1.07-.79,1.17-.95.3-.48.05-.33-1.08.67M432.63,190.64c-1.69,1.34-2.32,1.99-1.07,1.11,1.23-.86,2.8-2.19,2.61-2.2-.08,0-.77.48-1.53,1.08M425.88,196.01l-1.38,1.25,1.46-1.14c1.28-1,1.66-1.37,1.38-1.37-.04,0-.7.56-1.46,1.25M416.89,203.21c-.47.42-.74.76-.59.76s.59-.35.99-.77c.92-.98.71-.97-.4,0M413.44,206.19l-.9,1,1-.9c.55-.5,1-.94,1-1,0-.24-.25-.03-1.09.9M508.62,208.25c.83.35.87.81.16,1.67-.43.53-.4.52.23-.06.84-.78.59-1.69-.5-1.84-.45-.06-.42,0,.11.22M455.1,216.27c-1.05.67-1.38,1.12-.46.61.7-.39,1.81-1.24,1.61-1.25-.08,0-.6.28-1.15.63M444.44,223.78l-1.23,1.1,1.3-.98c1.12-.84,1.53-1.24,1.23-1.23-.04,0-.63.5-1.3,1.1M454.1,235.71c-.57.42-.91.76-.75.76.31,0,2.25-1.52,1.96-1.52-.09,0-.64.34-1.21.76M513.69,238.84c.47.07,1.16.07,1.53,0s0-.13-.85-.13-1.15.06-.69.13M518.44,238.84c.38.07.93.07,1.23,0,.29-.08-.02-.14-.69-.13-.67,0-.91.07-.53.14M423.57,240.85l-1.21,1.3,1.3-1.21c1.21-1.13,1.44-1.39,1.21-1.39-.05,0-.64.59-1.3,1.3M396.09,240.31c.17.34.53.89.8,1.23l.5.61-.3-.61c-.17-.34-.53-.89-.8-1.23l-.5-.61.3.61M565.37,243.13c.38.07,1,.07,1.38,0s.07-.13-.69-.13-1.07.06-.69.13M569.97,243.13c.38.07,1,.07,1.38,0s.07-.13-.69-.13-1.07.06-.69.13M560.69,243.84c-.39.17-.44.26-.15.26.25,0,.74-.12,1.07-.26.39-.17.44-.26.15-.26-.25,0-.74.12-1.07.26M575.11,243.84c.34.15.89.26,1.23.26.49,0,.46-.06-.15-.26-1.05-.34-1.86-.34-1.07,0M534.93,245.53c.34.27.89.63,1.23.8l.61.3-.61-.5c-.34-.27-.89-.63-1.23-.8l-.61-.3.61.5M399.77,246.14c.17.34.53.89.8,1.23l.5.61-.3-.61c-.17-.34-.53-.89-.8-1.23l-.5-.61.3.61M551.8,248.01l-.92.79,1-.66c.55-.36,1-.72,1-.79,0-.23-.13-.15-1.07.66M490.29,250.51l-1.68,1.76,1.76-1.68c1.64-1.56,1.9-1.85,1.68-1.85-.05,0-.84.79-1.76,1.76M546.87,251.89l-.9,1,1.07-.92c.59-.51,1.13-.95,1.2-1,.07-.04,0-.08-.17-.08s-.71.45-1.2,1M487.06,254.04l-.9,1,1-.9c.93-.84,1.14-1.09.9-1.09-.05,0-.5.45-1,1M599.72,255.1c.38.07,1,.07,1.38,0s.07-.13-.69-.13-1.07.06-.69.13M638.32,256.41c.11.42.33.97.49,1.23.2.32.22.23.08-.31-.11-.42-.33-.97-.49-1.23-.2-.32-.22-.23-.08.31M620.34,262.01c.75.8,1.41,1.46,1.46,1.46.23,0-.01-.28-1.37-1.55l-1.46-1.37,1.37,1.46M476.62,280.95c0,2.62.05,3.68.1,2.38.06-1.31.06-3.45,0-4.75-.06-1.31-.1-.24-.1,2.38M626.26,277.73c0,.67.07.92.14.53.07-.38.07-.93,0-1.23-.08-.29-.14.02-.13.69M626.54,280.53c-.03.87-.13,2.04-.21,2.61l-.15,1.04.32-1.02c.18-.56.27-1.73.21-2.61l-.11-1.59-.06,1.57M649.98,287.09c.11.42.33.97.49,1.23.2.32.22.23.08-.31-.11-.42-.33-.97-.49-1.23-.2-.32-.22-.23-.08.31M653.22,295.39c.18.52.38.88.45.81.15-.15-.43-1.75-.63-1.75-.08,0,0,.42.18.94M428.95,299.05c.34.67.69,1.23.78,1.23s-.13-.55-.47-1.23c-.34-.67-.69-1.23-.78-1.23s.13.55.47,1.23M472.05,307.52l-1.23,1.1,1.3-.98c1.12-.84,1.53-1.24,1.23-1.23-.04,0-.63.5-1.3,1.1M468.02,311.4c-1.06,1.79-1.12,1.94-.59,1.3.62-.74,1.16-1.69.96-1.69-.08,0-.25.17-.37.38M553.94,313.02c-.77.37-.79.41-.15.26.87-.21,1.85-.71,1.38-.7-.17,0-.72.2-1.23.45M550.19,314.4c-1.03.41-.84.62.23.25.51-.18.92-.38.92-.44,0-.18-.37-.12-1.15.19M537.07,319.15c-.77.37-.79.41-.15.26.87-.21,1.85-.71,1.38-.7-.17,0-.72.2-1.23.45M464.09,320.69c-.12.62-.15,1.18-.07,1.26.08.08.23-.37.35-.98.12-.62.15-1.18.07-1.26-.08-.08-.23.37-.35.98M463.71,325.74c0,1.1.06,1.54.12,1,.07-.55.07-1.45,0-1.99-.07-.55-.12-.1-.12,1M499.81,335.4c-.42.24-.63.44-.46.44s.65-.2,1.07-.44.63-.44.46-.44-.65.2-1.07.44M468.52,341.17s.45.5,1,1l1,.9-.9-1c-.84-.93-1.09-1.14-1.09-.9M480.72,343.74c.38.07.93.07,1.23,0,.29-.08-.02-.14-.69-.13-.67,0-.92.07-.53.14M475.19,344.67c.55.07,1.45.07,1.99,0s.1-.12-1-.12-1.55.06-1,.12M675.83,346.13c.17.34.53.89.8,1.23l.5.61-.3-.61c-.17-.34-.53-.89-.8-1.23l-.5-.61.3.61M666.52,353.96c-.39.17-.44.26-.15.26.25,0,.74-.12,1.07-.26.39-.17.44-.26.15-.26-.25,0-.74.12-1.07.26M467.75,371.13c.26.51.54.92.63.92s-.06-.41-.32-.92-.54-.92-.63-.92.06.41.32.92M607.47,370.83c-.63.2-.66.25-.15.27.34.01.82-.11,1.07-.27.54-.35.16-.35-.92,0M597.5,373.28c-.39.17-.44.26-.15.26.25,0,.74-.12,1.07-.26.39-.17.44-.26.15-.26-.25,0-.74.12-1.07.26M595.2,373.89c-.63.2-.66.25-.15.27.34.01.82-.11,1.07-.27.54-.35.16-.35-.92,0M470.05,375.43c.34.67.7,1.23.78,1.23s-.13-.55-.47-1.23-.7-1.23-.78-1.23.13.55.47,1.23M472.51,380.03c.34.67.7,1.23.78,1.23s-.13-.55-.47-1.23c-.34-.67-.7-1.23-.78-1.23s.13.55.47,1.23M558.24,384.94c-.39.17-.44.26-.15.26.25,0,.74-.12,1.07-.26.39-.17.44-.26.15-.26-.25,0-.74.12-1.07.26M536.77,391.85c-.77.37-.79.41-.15.26.87-.21,1.85-.71,1.38-.7-.17,0-.72.2-1.23.45"/>
    </g>
  </g>
  <g>
    <path class="st7" d="M451.77,807.55l3.16.71c-1.51,6.1-4.93,9.15-10.25,9.15-3.5,0-6.24-1.41-8.23-4.24-1.99-2.82-2.99-6.3-2.99-10.42s1.04-7.67,3.12-10.25,4.87-3.87,8.36-3.87c5.18,0,8.51,2.96,9.98,8.89l-3.26.65c-1.19-4.4-3.44-6.6-6.74-6.6-2.44,0-4.34,1.02-5.68,3.07-1.34,2.04-2.02,4.92-2.02,8.62,0,3.39.69,6.11,2.07,8.15,1.38,2.05,3.2,3.07,5.47,3.07,3.52,0,5.86-2.31,7.01-6.93h0Z"/>
    <path class="st7" d="M477.9,816.85h-3.63l-5.1-11.97h-7.92v11.97h-3.24v-27.64h10.89c2.96,0,5.15.81,6.57,2.42s2.14,3.38,2.14,5.3c0,1.47-.4,2.88-1.19,4.23-.8,1.35-2.11,2.32-3.95,2.9l5.43,12.8h0ZM461.26,802.07h7.23c1.9,0,3.32-.5,4.26-1.51s1.41-2.24,1.41-3.7-.5-2.59-1.49-3.4-2.24-1.21-3.76-1.21h-7.65v9.82h0Z"/>
    <path class="st7" d="M498.29,807.55l3.16.71c-1.51,6.1-4.93,9.15-10.25,9.15-3.5,0-6.24-1.41-8.23-4.24-1.99-2.82-2.99-6.3-2.99-10.42s1.04-7.67,3.12-10.25,4.87-3.87,8.36-3.87c5.18,0,8.51,2.96,9.98,8.89l-3.26.65c-1.19-4.4-3.44-6.6-6.74-6.6-2.44,0-4.34,1.02-5.68,3.07-1.34,2.04-2.02,4.92-2.02,8.62,0,3.39.69,6.11,2.07,8.15,1.38,2.05,3.2,3.07,5.47,3.07,3.52,0,5.86-2.31,7.01-6.93h0Z"/>
    <path class="st7" d="M510.84,805.25v2.47h-9.15v-2.47h9.15Z"/>
    <path class="st7" d="M530.27,807.55l3.16.71c-1.51,6.1-4.93,9.15-10.25,9.15-3.5,0-6.24-1.41-8.23-4.24-1.99-2.82-2.99-6.3-2.99-10.42s1.04-7.67,3.12-10.25,4.87-3.87,8.36-3.87c5.18,0,8.51,2.96,9.98,8.89l-3.26.65c-1.19-4.4-3.44-6.6-6.74-6.6-2.44,0-4.34,1.02-5.68,3.07-1.34,2.04-2.02,4.92-2.02,8.62,0,3.39.69,6.11,2.07,8.15,1.38,2.05,3.2,3.07,5.47,3.07,3.52,0,5.86-2.31,7.01-6.93h0Z"/>
    <path class="st7" d="M539.98,816.85h-3.46v-27.64h9.8c3.06,0,5.33.83,6.78,2.5,1.46,1.67,2.19,3.57,2.19,5.7,0,2.38-.79,4.34-2.38,5.89s-3.66,2.33-6.23,2.33h-6.7v11.22ZM539.98,802.76h6.36c1.63,0,2.95-.49,3.95-1.47s1.5-2.27,1.5-3.88c0-1.38-.45-2.61-1.34-3.69s-2.18-1.62-3.87-1.62h-6.6v10.65h0Z"/>
    <path class="st7" d="M558.5,816.85v-27.64h10.93c2.75,0,4.8.67,6.13,2.02,1.33,1.35,2,2.91,2,4.69,0,3.13-1.63,5.21-4.9,6.23,1.94.5,3.39,1.39,4.33,2.67s1.42,2.74,1.42,4.36c0,2.17-.73,4-2.2,5.46s-3.72,2.2-6.77,2.2h-10.94ZM561.84,801.05h6.01c2.5,0,4.17-.48,5-1.43.84-.95,1.26-2.07,1.26-3.35s-.45-2.29-1.35-3.08c-.9-.78-2.24-1.17-4.02-1.17h-6.91v9.03h0ZM561.84,813.81h7.41c1.81,0,3.21-.44,4.19-1.32s1.48-2.02,1.48-3.42c0-.99-.22-1.9-.67-2.74-.45-.84-1.07-1.5-1.88-1.95-.81-.46-2.02-.69-3.62-.69h-6.91v10.13h0Z"/>
    <path class="st7" d="M588.67,805.25v2.47h-9.15v-2.47h9.15Z"/>
    <path class="st7" d="M600.26,817.42c-3.19,0-5.73-1.38-7.63-4.14s-2.86-6.19-2.86-10.28.9-7.42,2.71-10.19,4.37-4.15,7.68-4.15,6.08,1.45,7.87,4.34,2.68,6.28,2.68,10.17-.92,7.14-2.75,9.99-4.4,4.28-7.7,4.28v-.02ZM600.28,814.68c2.33,0,4.06-1.06,5.18-3.17s1.68-4.77,1.68-7.97c0-3.5-.57-6.41-1.72-8.73s-2.92-3.48-5.31-3.48-4.03,1.06-5.15,3.18c-1.13,2.12-1.69,4.91-1.69,8.36s.59,6.46,1.78,8.6c1.19,2.14,2.93,3.21,5.22,3.21h.01Z"/>
    <path class="st7" d="M623.38,817.42c-3.19,0-5.73-1.38-7.63-4.14s-2.86-6.19-2.86-10.28.9-7.42,2.71-10.19,4.37-4.15,7.68-4.15,6.08,1.45,7.87,4.34,2.68,6.28,2.68,10.17-.92,7.14-2.75,9.99-4.4,4.28-7.7,4.28v-.02ZM623.4,814.68c2.33,0,4.06-1.06,5.18-3.17s1.68-4.77,1.68-7.97c0-3.5-.57-6.41-1.72-8.73s-2.92-3.48-5.31-3.48-4.03,1.06-5.15,3.18c-1.13,2.12-1.69,4.91-1.69,8.36s.59,6.46,1.78,8.6c1.19,2.14,2.93,3.21,5.22,3.21h.01Z"/>
    <path class="st7" d="M646.5,817.42c-3.19,0-5.73-1.38-7.63-4.14s-2.86-6.19-2.86-10.28.9-7.42,2.71-10.19,4.37-4.15,7.68-4.15,6.08,1.45,7.87,4.34,2.68,6.28,2.68,10.17-.92,7.14-2.75,9.99-4.4,4.28-7.7,4.28v-.02ZM646.52,814.68c2.33,0,4.06-1.06,5.18-3.17s1.68-4.77,1.68-7.97c0-3.5-.57-6.41-1.72-8.73s-2.92-3.48-5.31-3.48-4.03,1.06-5.15,3.18c-1.13,2.12-1.69,4.91-1.69,8.36s.59,6.46,1.78,8.6c1.19,2.14,2.93,3.21,5.22,3.21h.01Z"/>
  </g>
  <circle class="st5" cx="472.81" cy="913.01" r="20.5"/>
  <circle class="st5" cx="417.46" cy="879.34" r="20.5"/>
  <circle class="st5" cx="362.76" cy="847.57" r="20.5"/>
  <circle class="st5" cx="305.93" cy="817.42" r="20.5"/>
</svg>